<svg width="22" height="22" viewBox="0 0 22 22" fill="none" xmlns="http://www.w3.org/2000/svg">
<path d="M21.4624 9.96322L11.9141 0.412435C11.6498 0.148344 11.2914 0 10.9178 0C10.5441 0 10.1858 0.148344 9.92143 0.412435L7.93607 2.39632L10.4517 4.91195C11.773 4.46566 13.024 5.73079 12.5704 7.04476L14.9952 9.46956C16.6665 8.89339 17.9825 10.9832 16.7271 12.2376C15.4336 13.5311 13.2989 12.0975 13.9927 10.4144L11.7295 8.15413V14.1038C12.9649 14.7161 12.8164 16.1473 12.1729 16.7894C11.8585 17.1036 11.4321 17.2802 10.9876 17.2802C10.5431 17.2802 10.1167 17.1036 9.80229 16.7894C8.94438 15.93 9.26176 14.4989 10.3516 14.055V8.04915C9.33598 7.63363 9.15043 6.54818 9.44145 5.85189L6.96146 3.36898L0.412637 9.91878C0.148427 10.183 0 10.5414 0 10.9151C0 11.2888 0.148427 11.6472 0.412637 11.9115L9.96391 21.4622C10.2282 21.7263 10.5864 21.8746 10.96 21.8746C11.3336 21.8746 11.6918 21.7263 11.9561 21.4622L21.4624 11.9559C21.7267 11.6916 21.8751 11.3332 21.8751 10.9596C21.8751 10.5859 21.7267 10.2275 21.4624 9.96322Z" fill="white"/>
</svg>
