<svg width="22" height="25" viewBox="0 0 22 25" fill="none" xmlns="http://www.w3.org/2000/svg">
<path d="M20.1631 16.2844C19.9977 17.2373 19.4092 18.0696 18.5485 18.5681C17.7462 19.0328 16.7847 19.1715 15.7668 19.3183C15.2215 19.3969 14.6576 19.4783 14.1068 19.6141C12.6502 19.9733 11.2394 20.6741 9.87509 21.3517C7.14476 22.7079 4.78681 23.879 2.56345 22.3381C0.93485 21.2093 1.01005 19.1209 1.19979 17.9765C1.37563 16.9163 1.85102 15.9398 2.31076 14.9955C2.39019 14.8322 2.46803 14.672 2.54378 14.5131C2.77165 14.6041 3.01401 14.6662 3.26665 14.6945C2.79867 16.2389 3.53461 17.9182 5.07933 18.7118L5.29071 18.8204L5.51462 18.7407C6.73578 18.3058 7.86103 17.6079 8.85911 16.6663C9.50424 16.0576 10.059 15.3842 10.5148 14.6647C10.6515 14.6853 10.7913 14.6961 10.9337 14.6961C12.3514 14.6961 13.5254 13.6363 13.7071 12.2674C14.2874 12.2461 14.9038 12.246 15.4874 12.2672C15.669 13.6361 16.8431 14.6961 18.2608 14.6961C18.8536 14.6961 19.4035 14.5103 19.8565 14.1948C20.171 14.8385 20.2884 15.5629 20.1631 16.2844ZM3.57872 10.2138C4.5161 10.2138 5.27863 10.9764 5.27863 11.9137C5.27863 12.2504 5.17986 12.5643 5.01022 12.8287C4.72759 13.2694 4.24742 13.5715 3.69551 13.6092C3.65689 13.6118 3.618 13.6136 3.57872 13.6136C3.36987 13.6136 3.16975 13.5755 2.98473 13.5063C2.61047 13.3663 2.29862 13.0977 2.10245 12.7549C1.96045 12.5066 1.87882 12.2196 1.87882 11.9137C1.87882 10.9764 2.6414 10.2138 3.57872 10.2138ZM9.23375 11.8976C9.23375 11.0459 9.86328 10.3388 10.6813 10.2165C10.7637 10.2041 10.848 10.1977 10.9337 10.1977C11.4786 10.1977 11.9638 10.4558 12.275 10.8559C12.3523 10.9552 12.4194 11.0631 12.4734 11.1782C12.5759 11.3969 12.6336 11.6405 12.6336 11.8976C12.6336 12.0335 12.6171 12.1656 12.5868 12.2923C12.4211 12.9858 11.8298 13.5159 11.1052 13.5888C11.0488 13.5945 10.9916 13.5975 10.9337 13.5975C10.5943 13.5975 10.2781 13.4971 10.0124 13.3251C9.54434 13.0219 9.23375 12.4955 9.23375 11.8976ZM16.3285 9.87619C15.9644 10.2246 15.6935 10.6698 15.5587 11.1704C14.9292 11.1468 14.2617 11.1468 13.6359 11.1704C13.4921 10.6369 13.1939 10.1661 12.7929 9.80857L14.5518 6.25182L16.3285 9.87619ZM8.75155 1.09866H20.3474L17.6086 9.17635C17.4899 9.20486 17.3741 9.24073 17.2617 9.28385L14.5562 3.76462L11.843 9.25089C11.7257 9.21052 11.6048 9.178 11.4811 9.15333L8.75155 1.09866ZM19.9607 11.8976C19.9607 12.068 19.9353 12.2325 19.8884 12.3879C19.7768 12.7575 19.5425 13.0742 19.2332 13.2907C18.9574 13.4838 18.6222 13.5975 18.2608 13.5975C17.476 13.5975 16.8139 13.0626 16.6192 12.3382C16.5814 12.1976 16.5609 12.05 16.5609 11.8976C16.5609 11.6652 16.6079 11.4437 16.6927 11.2418C16.7363 11.1377 16.7908 11.0394 16.8534 10.947C17.1593 10.4955 17.6756 10.1977 18.2608 10.1977C18.3145 10.1977 18.3675 10.2005 18.4199 10.2054C19.2829 10.2858 19.9607 11.0139 19.9607 11.8976ZM21.0594 11.8976C21.0594 10.5313 20.075 9.3913 18.7784 9.14773L21.88 0H7.21919L10.3255 9.16635C9.07389 9.44486 8.13509 10.5633 8.13509 11.8976C8.13509 12.8994 8.66459 13.7795 9.4581 14.274C9.07642 14.8427 8.62377 15.3778 8.10515 15.8671C7.28253 16.6432 6.36614 17.2317 5.37816 17.6189C4.38305 16.9938 3.96237 15.815 4.39926 14.788L4.43348 14.7076C4.4549 14.6573 4.47633 14.6069 4.4977 14.5565C5.5907 14.1753 6.37729 13.135 6.37729 11.9137C6.37729 10.3705 5.12185 9.11515 3.57872 9.11515C2.0356 9.11515 0.780158 10.3705 0.780158 11.9137C0.780158 12.6926 1.10031 13.398 1.61558 13.9058C1.52219 14.1048 1.42386 14.3073 1.32295 14.5145C0.851846 15.4822 0.317897 16.5789 0.115963 17.7968C-0.285103 20.2155 0.361843 22.149 1.9376 23.2411C2.89382 23.9038 3.86481 24.1643 4.84202 24.1643C6.68205 24.1643 8.54335 23.2399 10.3638 22.3357C11.6749 21.6845 13.0307 21.0111 14.3698 20.6808C14.8681 20.5579 15.3808 20.484 15.9237 20.4057C17.0001 20.2504 18.1132 20.0899 19.0991 19.5189C20.242 18.8569 21.0244 17.7465 21.2456 16.4724C21.4355 15.3786 21.207 14.2831 20.6496 13.3541C20.9094 12.9295 21.0594 12.4307 21.0594 11.8976Z" fill="white"/>
</svg>
