<svg width="22" height="22" viewBox="0 0 22 22" fill="none" xmlns="http://www.w3.org/2000/svg">
<path d="M17.2668 17.0284C18.0407 16.7011 18.9633 16.582 20.1538 16.6117C20.1203 16.3889 19.6949 16.1244 19.3832 15.9305C19.2786 15.8655 19.1868 15.8084 19.127 15.7635C18.6508 15.4213 18.1448 15.064 17.6388 14.7516C17.4759 14.652 17.2412 14.5689 17.0154 14.489C16.8701 14.4375 16.7285 14.3874 16.612 14.335C16.493 14.2864 16.3308 14.2379 16.1558 14.1856C15.74 14.0611 15.2513 13.9149 15.0941 13.6951C14.6895 13.169 14.4071 12.5329 14.1251 11.8977C14.096 11.8321 14.0668 11.7664 14.0376 11.701C13.89 11.3635 13.7258 11.0195 13.5606 10.6735C13.3762 10.287 13.1906 9.89815 13.0257 9.51341C12.9538 9.3567 12.8992 9.20854 12.8454 9.06269C12.7766 8.87621 12.7092 8.6935 12.609 8.50151C11.5226 6.40329 9.91556 4.64723 7.96607 3.41211C7.3261 3.0103 6.61191 2.63818 5.82313 2.38527C5.58227 2.31304 5.31542 2.30141 5.04595 2.28967C4.81597 2.27965 4.58408 2.26955 4.36479 2.22162H4.05223C3.8718 2.17149 3.71162 2.02681 3.56261 1.89222C3.49043 1.82702 3.42086 1.76418 3.35289 1.71562C2.89152 1.40315 2.43024 1.19468 1.87961 0.971557C1.68618 0.882307 1.13556 0.673933 0.942121 0.837682C0.822996 0.867464 0.763528 0.912089 0.733747 1.03112C0.614716 1.20971 0.718997 1.47756 0.793309 1.64121C0.940812 1.95589 1.12733 2.18611 1.31845 2.42202C1.41656 2.54312 1.51589 2.66572 1.61178 2.80202C1.65758 2.86666 1.70533 2.93277 1.75388 2.99999C1.97352 3.30407 2.20958 3.63088 2.35584 3.9478C2.56223 4.39241 2.70934 4.86243 2.85592 5.33072C2.98409 5.74023 3.11186 6.14842 3.27849 6.53717C3.41236 6.84973 3.62074 7.20682 3.81418 7.4896C3.87484 7.57235 3.95394 7.64691 4.034 7.7224C4.16992 7.85053 4.30864 7.9813 4.3648 8.15926C4.50952 8.40043 4.24382 9.09107 4.08239 9.51069C4.04461 9.60891 4.01253 9.69228 3.99277 9.75157C3.6058 10.9717 3.68021 12.6682 4.12664 13.7248C4.1426 13.762 4.15844 13.7998 4.17439 13.8379C4.33699 14.2263 4.51153 14.6431 4.94511 14.7516C4.9586 14.7381 4.95989 14.7338 4.96279 14.7317C4.96629 14.7292 4.97213 14.73 5.00468 14.7218C5.02645 14.5508 5.04498 14.381 5.06325 14.2137C5.13239 13.5802 5.1978 12.981 5.42133 12.4748C5.52784 12.2135 5.70355 12.0025 5.8748 11.7968C5.96683 11.6863 6.05758 11.5773 6.13561 11.4629C6.23005 11.5195 6.26456 11.6481 6.3 11.7801C6.32041 11.8561 6.34112 11.9333 6.37377 11.9986C6.38781 12.0321 6.40194 12.0658 6.41615 12.0998C6.59763 12.5331 6.79287 12.9994 7.01364 13.4272C7.5047 14.3796 8.05541 15.3021 8.68035 16.1355C8.88863 16.4332 9.18635 16.7606 9.45419 17.0284C9.49492 17.0641 9.53739 17.0945 9.57922 17.1244C9.65963 17.182 9.73767 17.2379 9.79644 17.326H9.82622V17.3708C9.5437 17.2671 9.32675 17.0443 9.11498 16.8268C8.99212 16.7006 8.871 16.5762 8.73982 16.4779C8.07017 15.9719 7.26664 15.2129 6.80526 14.4838C6.65995 14.1708 6.50627 13.8662 6.35045 13.5573C6.29885 13.4551 6.24701 13.3523 6.19517 13.2486C6.19517 13.2486 6.19525 13.2337 6.19517 13.2189C6.1383 13.2947 6.12976 13.3705 6.11948 13.4618C6.11363 13.5137 6.10721 13.5707 6.09099 13.6355C6.03583 13.8477 6.0085 14.0683 5.98208 14.2816C5.91587 14.8161 5.85541 15.3042 5.37671 15.4957C4.6178 15.8082 4.05224 14.9896 3.81418 14.6176C3.05527 13.3825 2.8469 11.2992 3.38258 9.6176C3.42403 9.48817 3.45286 9.34974 3.48161 9.21169C3.5355 8.95295 3.58911 8.69559 3.72493 8.50151C3.69507 8.32267 3.59229 8.23003 3.49185 8.13949C3.44186 8.09443 3.39245 8.04989 3.3529 7.99551C3.14452 7.71282 2.96602 7.38542 2.80227 7.07295C2.56434 6.60845 2.37823 6.07492 2.19787 5.55786C2.1413 5.39568 2.0853 5.23513 2.02843 5.07883C1.97764 4.94824 1.94455 4.81761 1.9119 4.68872C1.87759 4.55325 1.84376 4.4197 1.79037 4.29014C1.6497 3.98534 1.41675 3.68059 1.20049 3.39766C1.14219 3.3214 1.08511 3.24672 1.03137 3.17405C0.973402 3.09085 0.896643 2.99443 0.811077 2.88694C0.391489 2.35984 -0.23987 1.56672 0.0938801 0.763279C0.718908 -0.769469 2.90656 0.391155 3.75462 0.926934C3.83942 0.981458 3.92916 1.06062 4.02182 1.14235C4.15683 1.26144 4.29804 1.38599 4.43921 1.44778C4.62526 1.45525 4.81134 1.46641 4.9974 1.47756C5.1834 1.48872 5.36937 1.49987 5.5553 1.50734C5.61623 1.52159 5.67681 1.53562 5.73702 1.54957C6.36801 1.69569 6.95742 1.83218 7.46008 2.11743C10.0197 3.62049 11.6864 5.15324 13.2191 7.68304C13.4272 8.0235 13.5692 8.38202 13.7138 8.74713C13.7967 8.95649 13.8804 9.16801 13.978 9.37953C14.3501 10.2426 14.7669 11.1502 15.1983 11.9688C15.2525 12.0773 15.3033 12.1893 15.3541 12.3016C15.4846 12.5896 15.6157 12.8791 15.8085 13.1147C15.8778 13.2137 16.0328 13.2666 16.1814 13.3172C16.2561 13.3427 16.3291 13.3676 16.3888 13.3975C16.5813 13.4966 16.7897 13.5866 16.9999 13.6773C17.3259 13.8181 17.6559 13.9606 17.9365 14.1415C18.7996 14.6772 19.633 15.317 20.3919 15.9719C20.5453 16.1092 20.6724 16.277 20.7994 16.4447C20.9065 16.5861 21.0134 16.7273 21.1359 16.8499V16.9838C20.8979 17.0582 20.6597 17.1326 20.4217 17.1922C20.1626 17.2588 19.9183 17.2849 19.6759 17.3108C19.4309 17.3369 19.1879 17.3629 18.9335 17.4302C18.9015 17.4394 18.8686 17.4489 18.8351 17.4585C18.5422 17.5431 18.2005 17.6417 17.9067 17.6684C17.9215 17.6832 17.9365 17.6981 17.9365 17.6981C18.0799 18.1064 18.6898 18.4574 19.1896 18.745C19.3639 18.8453 19.5247 18.9379 19.6478 19.0225C20.2282 19.4392 20.7639 19.9452 21.1955 20.5255C21.2697 20.5997 21.3439 20.6702 21.4181 20.7407C21.4927 20.8116 21.5674 20.8825 21.6419 20.9571C21.6923 21.0291 21.7253 21.1117 21.7577 21.1928C21.7923 21.2793 21.8263 21.3642 21.88 21.4333V21.4779C21.7498 21.4314 21.6603 21.3384 21.5715 21.2462C21.5182 21.1908 21.4652 21.1357 21.4038 21.0911C21.2636 20.9955 21.1235 20.8917 20.9834 20.788C20.7962 20.6493 20.609 20.5107 20.4217 20.3916C20.1337 20.2097 19.8226 20.0665 19.5099 19.9225C19.2086 19.7837 18.9058 19.6443 18.621 19.469C18.2937 19.2606 17.9811 19.0225 17.6686 18.7845C17.3859 18.5761 17.0735 18.1742 16.8948 17.8767C16.8498 17.8059 16.8214 17.7296 16.7941 17.6562C16.7583 17.5597 16.7243 17.4681 16.6566 17.4005C16.6789 17.189 16.8843 17.1357 17.0798 17.0849C17.1457 17.0678 17.2105 17.0509 17.2668 17.0284Z" fill="white"/>
<path d="M4.36473 3.75436C4.54332 3.70974 4.72182 3.67986 4.97482 3.67986C5.02198 3.72706 5.08084 3.76723 5.14028 3.80778C5.23084 3.86959 5.32275 3.9323 5.37663 4.0222C5.40969 4.06849 5.43099 4.11478 5.45229 4.16107C5.47893 4.21897 5.50558 4.27687 5.55523 4.33477C5.55523 4.69186 5.45113 4.92992 5.24266 5.07883C5.24266 5.07883 5.22782 5.09367 5.21298 5.10861C5.1535 4.9897 5.09777 4.8708 5.04205 4.75191C4.98616 4.63267 4.93028 4.51344 4.87063 4.39423C4.81269 4.31313 4.74574 4.23878 4.67855 4.16416C4.57319 4.04716 4.46725 3.9295 4.39451 3.78414H4.36473V3.75436Z" fill="white"/>
</svg>
