<svg width="24" height="24" viewBox="0 0 24 24" fill="none" xmlns="http://www.w3.org/2000/svg">
<path d="M13.8828 1C13.7251 1 13.5783 1.03373 13.4425 1.07932C13.7305 1.27077 13.8892 1.52603 13.9676 1.81412C13.974 1.85332 13.9849 1.88158 13.9904 1.92079C13.9971 1.95444 14.0011 1.98859 14.0022 2.02289C14.0241 2.51975 13.8719 2.58266 13.7652 2.87621C13.6011 3.25455 13.6467 3.66116 13.8436 3.98845C13.8616 4.03234 13.8842 4.0742 13.9111 4.11334C13.6968 2.68385 14.8893 2.46961 15.109 2.02289C15.1263 1.6327 14.8045 1.37287 14.5501 1.19236C14.3503 1.06676 14.1189 0.99947 13.8828 1ZM15.6797 1.32182C15.6578 1.45219 15.6742 1.41846 15.6688 1.48592C15.6633 1.5315 15.6633 1.58803 15.6578 1.6327C15.646 1.67828 15.635 1.72387 15.6177 1.76854C15.6068 1.81412 15.5903 1.8597 15.5721 1.90438L15.511 2.03383C15.4928 2.05662 15.4828 2.07942 15.4654 2.10221L15.4317 2.15235C15.4048 2.19104 15.3765 2.22874 15.3469 2.2654C15.3132 2.30004 15.2849 2.33924 15.2448 2.3675V2.37297C15.2111 2.40123 15.1774 2.43497 15.1372 2.46414C15.0187 2.55439 14.8838 2.62186 14.7589 2.70664C14.7197 2.73399 14.6796 2.7577 14.6459 2.79143C14.6075 2.8184 14.5715 2.8486 14.5383 2.88168C14.4991 2.91541 14.4708 2.94915 14.4371 2.98926C14.4088 3.02299 14.3751 3.06219 14.3523 3.10231C14.3239 3.14048 14.2975 3.18003 14.273 3.22082C14.2502 3.26641 14.2338 3.30561 14.211 3.35028C14.1937 3.39586 14.1773 3.43506 14.1654 3.48065C14.1505 3.52721 14.1374 3.57435 14.1262 3.62196C14.1207 3.64475 14.1207 3.67301 14.1153 3.69489C14.1089 3.71768 14.1089 3.74047 14.1034 3.76326C14.1034 3.80885 14.0979 3.85899 14.0979 3.90457C14.0979 3.9383 14.0979 3.97204 14.1034 4.00577C14.1034 4.05135 14.1089 4.09693 14.1207 4.14708C14.1262 4.19266 14.1372 4.23824 14.1481 4.28383C14.1663 4.3285 14.1773 4.37317 14.1937 4.41875C14.2055 4.4461 14.2219 4.47528 14.2338 4.49807L12.9338 3.99483C12.714 3.93283 12.4989 3.87631 12.2783 3.82526L11.9227 3.74047C11.5836 3.67301 11.239 3.62196 10.8944 3.58822C10.8825 3.58822 10.877 3.58275 10.8661 3.58275C10.2838 3.52442 9.6975 3.5168 9.11387 3.55996C8.76926 3.58275 8.42465 3.62743 8.08004 3.68395C7.82394 3.72808 7.56944 3.78098 7.31697 3.84258L7.06262 3.91004C6.97874 3.94377 6.89852 3.98298 6.82011 4.01762L6.63322 4.1024C6.62228 4.10787 6.61134 4.10787 6.60587 4.11334C6.54844 4.14161 6.4983 4.1644 6.44724 4.19266C6.37384 4.22504 6.30204 4.26094 6.23209 4.30024C6.19289 4.31665 6.15369 4.33944 6.11904 4.35676C6.10285 4.36681 6.08611 4.37594 6.0689 4.38411C6.01785 4.41328 5.96679 4.44154 5.92121 4.46981C5.87469 4.49552 5.82964 4.52383 5.78628 4.55459C5.74617 4.58194 5.70697 4.60473 5.67324 4.63299C5.66777 4.63938 5.66139 4.63938 5.65592 4.64485C5.62218 4.66764 5.58298 4.6959 5.54834 4.72416L5.5374 4.7351L5.45261 4.80256C5.44167 4.80895 5.42982 4.81989 5.41888 4.82536C5.39062 4.84815 5.36236 4.87641 5.3341 4.89829C5.32863 4.91014 5.31678 4.91652 5.31131 4.92108C5.27757 4.95572 5.24384 4.98399 5.21011 5.01772C5.20373 5.01772 5.20373 5.02319 5.19826 5.02866C5.16312 5.05937 5.12936 5.09161 5.09706 5.12529C5.09068 5.13076 5.09068 5.13623 5.08521 5.13623C5.05554 5.16528 5.02725 5.1957 5.00043 5.2274C4.98949 5.23834 4.97308 5.24928 4.96123 5.26022C4.93095 5.29604 4.89869 5.33013 4.86459 5.36233C4.85912 5.37327 4.84818 5.37965 4.84271 5.38968C4.79713 5.43526 4.75792 5.48084 4.71234 5.52643L4.69593 5.54284C4.60476 5.63947 4.50904 5.7352 4.40693 5.81998C4.30574 5.91115 4.19816 5.99502 4.09058 6.06887C3.87459 6.22315 3.64148 6.35195 3.39589 6.45268C3.27738 6.50373 3.15248 6.54932 3.02849 6.58852C2.79146 6.63957 2.54804 6.7353 2.33927 6.75262C2.29369 6.75262 2.24355 6.76356 2.19796 6.76903L2.05666 6.80276L1.92082 6.85381C1.87523 6.87114 1.83056 6.89393 1.78589 6.91581C1.74578 6.94407 1.70111 6.96686 1.66099 6.99512C1.62077 7.02424 1.58296 7.05655 1.54795 7.09176C1.50874 7.11911 1.46863 7.15922 1.4349 7.19295C1.40117 7.23216 1.36744 7.26589 1.33917 7.306C1.31091 7.35158 1.27718 7.39079 1.25439 7.43637C1.22469 7.47744 1.19818 7.52072 1.17507 7.56583C1.15228 7.61688 1.12949 7.66246 1.11308 7.7126C1.09576 7.75819 1.07935 7.80924 1.06203 7.85938C1.05109 7.90497 1.03924 7.95055 1.03468 7.99613C1.03468 8.00069 1.0283 8.00707 1.0283 8.01254C1.01736 8.0636 1.01736 8.13106 1.01097 8.16479C1.0055 8.2049 1.00003 8.23772 1.00003 8.27784C0.998985 8.37615 1.02215 8.47321 1.0675 8.56045V8.56592C1.08482 8.59966 1.10761 8.6343 1.1304 8.66803C1.15228 8.70176 1.17599 8.73549 1.20334 8.76923C1.2316 8.79749 1.26533 8.83213 1.29997 8.86039C1.33291 8.89344 1.3686 8.92363 1.40664 8.95065C1.54248 9.06916 1.57621 9.10837 1.75125 9.19862C1.77951 9.21594 1.80777 9.22688 1.84241 9.2442C1.84788 9.2442 1.85335 9.24967 1.85882 9.24967C1.85882 9.26153 1.85882 9.267 1.86429 9.27794C1.87749 9.37112 1.90198 9.46235 1.93723 9.54961C1.95546 9.58334 1.9664 9.61708 1.98281 9.65081C1.98919 9.66266 1.99466 9.6736 2.00104 9.67907C2.02292 9.72465 2.04572 9.76385 2.0676 9.80397L2.15238 9.92248C2.18064 9.95621 2.21529 9.99542 2.24902 10.0301C2.28275 10.0638 2.31648 10.0921 2.35659 10.1258C2.35659 10.1258 2.36206 10.1313 2.36753 10.1313C2.40127 10.1595 2.435 10.1878 2.46964 10.2106C2.50896 10.2382 2.55042 10.2625 2.59363 10.2835C2.63283 10.3063 2.67841 10.3291 2.72308 10.3464C2.75951 10.3628 2.79735 10.376 2.83613 10.3856C2.84251 10.3911 2.84798 10.3911 2.85892 10.3966C2.88171 10.4029 2.90998 10.4084 2.93186 10.4139C2.91545 10.7193 2.90998 11.0065 2.95556 11.1086C3.0057 11.2216 3.25459 10.877 3.50256 10.4813C3.46974 10.8715 3.44695 11.3292 3.50256 11.465C3.56546 11.6063 3.90369 11.1651 4.19816 10.6792C8.20494 9.75291 11.8607 12.5207 12.2445 16.4318C12.1716 15.821 11.4195 15.4827 11.0749 15.5675C10.9053 15.9851 10.6172 16.522 10.1541 16.8557C10.1933 16.4819 10.1769 16.099 10.0976 15.7252C9.971 16.2455 9.73167 16.7317 9.39648 17.1493C8.86042 17.1885 8.32345 16.9286 8.04084 16.5384C8.01804 16.522 8.01257 16.4883 7.99525 16.4655C7.97884 16.4263 7.96152 16.3862 7.94967 16.347C7.93327 16.3091 7.92193 16.2693 7.91594 16.2285C7.91047 16.1884 7.91047 16.1492 7.91047 16.1036V16.0188C7.91721 15.9787 7.92665 15.9391 7.93873 15.9003C7.95058 15.8611 7.96152 15.8219 7.97884 15.7818C8.00072 15.7426 8.01804 15.7024 8.04631 15.6632C8.14203 15.3916 8.14203 15.1709 7.96699 15.0415C7.93299 15.0193 7.89698 15.0004 7.85941 14.985C7.83753 14.9795 7.80927 14.9686 7.78648 14.9622L7.7409 14.9458C7.7022 14.9332 7.66257 14.9238 7.62238 14.9175C7.58388 14.9062 7.54398 14.9004 7.50386 14.9002C7.46283 14.8937 7.42141 14.8901 7.37988 14.8892C7.35162 14.8892 7.32335 14.8947 7.29509 14.8947C7.25284 14.8945 7.21078 14.9003 7.17019 14.912C7.13099 14.9175 7.09179 14.923 7.05168 14.9339C7.01135 14.9447 6.97177 14.9581 6.93316 14.974C6.89396 14.9904 6.86023 15.0078 6.82011 15.0251C6.78638 15.0415 6.75265 15.0643 6.71254 15.0816C5.39609 15.9404 6.18195 17.9515 7.07994 18.5341C6.7408 18.5961 6.39619 18.669 6.30046 18.7429L6.28861 18.7538C6.53203 18.9006 6.78638 19.0255 7.05168 19.1331C7.41361 19.2516 7.79742 19.3582 7.96699 19.4038V19.4093C8.43516 19.5054 8.91392 19.5398 9.39101 19.5114C11.8945 19.3364 13.9457 17.4319 14.3186 14.923L14.3523 15.0698C14.3696 15.1719 14.3915 15.2794 14.4034 15.3861V15.3916C14.4143 15.4426 14.4198 15.4937 14.4261 15.5393V15.5611C14.4316 15.6122 14.4371 15.6632 14.4371 15.7088C14.4426 15.7708 14.448 15.8328 14.448 15.8948V15.986C14.448 16.0133 14.4544 16.0471 14.4544 16.0753C14.4544 16.11 14.448 16.1437 14.448 16.1774V16.2567C14.448 16.2959 14.4426 16.3297 14.4426 16.3698C14.4426 16.3926 14.4426 16.4154 14.4371 16.4427C14.4371 16.4828 14.4316 16.522 14.4316 16.5676C14.4261 16.584 14.4261 16.6014 14.4261 16.6178L14.4079 16.7481C14.4079 16.7655 14.4079 16.7819 14.4034 16.7992C14.397 16.8557 14.386 16.9068 14.3806 16.9633V16.9742L14.3468 17.1329V17.1493L14.3131 17.3015C14.3131 17.3079 14.3067 17.3197 14.3067 17.3243C14.2963 17.376 14.2832 17.4271 14.2675 17.4775V17.4939C14.2502 17.5504 14.2338 17.6014 14.2219 17.6525C14.2165 17.658 14.2165 17.6634 14.2165 17.6634L14.1654 17.833C14.1435 17.8895 14.1262 17.9406 14.1034 17.9971C14.0806 18.0536 14.0642 18.1102 14.0414 18.1612C14.0186 18.2177 13.9958 18.2679 13.974 18.3253H13.9676C13.9457 18.3755 13.922 18.432 13.8946 18.483C13.8899 18.4965 13.8841 18.5096 13.8773 18.5222C13.8719 18.5277 13.8719 18.5341 13.8664 18.5396C13.4927 19.2877 12.9487 19.9378 12.2783 20.4376C12.2327 20.4659 12.188 20.5006 12.1424 20.5343C12.1315 20.5452 12.1151 20.5507 12.1032 20.5616C12.0628 20.5915 12.0215 20.6201 11.9792 20.6473L11.9956 20.6811H12.002L12.2391 20.6473H12.2445C12.3913 20.6245 12.5381 20.5963 12.6849 20.568C12.725 20.5625 12.7697 20.5507 12.8098 20.5398L12.8891 20.5224C12.9283 20.517 12.9675 20.506 13.0076 20.5006C13.0413 20.4887 13.0751 20.4823 13.1088 20.4723C13.674 20.3355 14.2219 20.1496 14.748 19.9298C13.8398 21.1668 12.632 22.1525 11.238 22.7943C11.889 22.7487 12.5381 22.6421 13.1653 22.4606C15.4356 21.7932 17.353 20.261 18.5049 18.194C18.2723 19.5025 17.7533 20.7434 16.9852 21.8279C17.5329 21.4667 18.0389 21.046 18.494 20.5735C19.7588 19.253 20.5892 17.5771 20.8735 15.7708C21.0649 16.6643 21.1214 17.585 21.0376 18.494C25.1164 12.8043 21.3758 6.90487 19.8105 5.35139C19.805 5.33954 19.7995 5.33407 19.7995 5.32313C19.794 5.3286 19.794 5.3286 19.794 5.33407C19.794 5.3286 19.794 5.3286 19.7877 5.32313C19.7877 5.39059 19.7822 5.45805 19.7767 5.52643C19.7611 5.653 19.7422 5.77915 19.7202 5.90477C19.6928 6.02876 19.6582 6.15365 19.6245 6.27855C19.5844 6.39707 19.5397 6.52106 19.4877 6.63957C19.4361 6.75662 19.3798 6.87158 19.3191 6.98418C19.1929 7.20569 19.0474 7.41558 18.8842 7.61141C18.7994 7.7126 18.7092 7.80286 18.618 7.89403C18.5647 7.94275 18.51 7.98987 18.4539 8.03533L18.3244 8.14838C18.2236 8.228 18.1179 8.30137 18.0081 8.36809C17.9001 8.43765 17.7887 8.50185 17.6744 8.56045C17.5559 8.61698 17.4374 8.66803 17.3189 8.71908C17.0775 8.81089 16.8277 8.87898 16.5731 8.92239C16.4428 8.94518 16.3133 8.95612 16.1884 8.96797C16.0983 8.97435 16.008 8.97799 15.9176 8.97891C15.7891 8.97714 15.6607 8.96953 15.5329 8.95612C15.4038 8.94599 15.2756 8.9271 15.1491 8.89959C15.021 8.87634 14.8945 8.84436 14.7708 8.80387H14.7644C14.8893 8.79202 15.0133 8.78108 15.1382 8.75829C15.3926 8.71418 15.6423 8.64611 15.8839 8.55498C16.0079 8.5094 16.1264 8.45288 16.2395 8.39635C16.358 8.33983 16.4655 8.27784 16.5786 8.21037C16.6862 8.13744 16.7928 8.0636 16.8949 7.98428C16.997 7.90497 17.0928 7.82018 17.183 7.72993C17.2788 7.64514 17.3635 7.54942 17.4483 7.45278C17.5331 7.35158 17.6124 7.24948 17.6854 7.14828C17.6972 7.13096 17.7091 7.10817 17.72 7.09176C17.7765 7.00059 17.833 6.91034 17.8841 6.82008C18.0087 6.5952 18.1107 6.35853 18.1886 6.11354C18.2287 5.99502 18.257 5.87104 18.2852 5.74614C18.308 5.61668 18.3308 5.4927 18.3418 5.3678C18.3527 5.23834 18.3645 5.10797 18.3645 4.98399C18.3645 4.89282 18.3582 4.80256 18.3527 4.71231C18.3414 4.58575 18.3262 4.45958 18.3071 4.33397C18.2851 4.2066 18.2572 4.08035 18.2232 3.95563C18.1831 3.83711 18.1439 3.71221 18.0983 3.59369C18.0528 3.47518 17.9971 3.35666 17.9406 3.24361C17.8777 3.13057 17.8157 3.01752 17.7483 2.90994C17.6761 2.80433 17.6007 2.70096 17.5222 2.59998C17.4374 2.50334 17.3526 2.4067 17.2623 2.31098C17.2148 2.26248 17.1658 2.21535 17.1156 2.16967C16.8603 1.97184 16.5959 1.78586 16.3297 1.61629C16.2932 1.5952 16.2554 1.57632 16.2167 1.55977C16.0491 1.45714 15.8685 1.37651 15.6797 1.32182Z" fill="white" stroke="white"/>
</svg>
