<svg width="22" height="25" viewBox="0 0 22 25" fill="none" xmlns="http://www.w3.org/2000/svg">
<path d="M10.9351 24.6787C10.607 24.6787 10.274 24.5905 9.98508 24.424L6.9636 22.6366C6.51307 22.3819 6.73344 22.2938 6.88035 22.2448C7.48269 22.0343 7.60511 21.9902 8.24663 21.6229C8.31518 21.5837 8.40333 21.5984 8.47189 21.6425L10.7931 23.0186C10.8763 23.0675 10.9939 23.0675 11.0722 23.0186L20.1171 17.7983C20.2003 17.7493 20.2542 17.6514 20.2542 17.5535V7.11296C20.2542 7.01012 20.2003 6.91708 20.1122 6.86321L11.0722 1.64786C10.989 1.59889 10.8763 1.59889 10.7931 1.64786L1.75804 6.86811C1.66989 6.91708 1.61603 7.01502 1.61603 7.11786V17.5535C1.61603 17.6514 1.66989 17.7493 1.75804 17.7934L4.23594 19.2234C5.58263 19.8942 6.40534 19.1058 6.40534 18.3076V8.00422C6.40534 7.85731 6.52286 7.74468 6.66978 7.74468H7.81569C7.9577 7.74468 8.08013 7.85731 8.08013 8.00422V18.3125C8.08013 20.1048 7.10072 21.1332 5.40144 21.1332C4.87746 21.1332 4.46611 21.1332 3.3202 20.5651L0.950027 19.1989C0.362381 18.861 0 18.2293 0 17.5486V7.11296C0 6.43717 0.362381 5.80055 0.950027 5.46265L9.98508 0.242404C10.558 -0.0808013 11.3171 -0.0808013 11.8851 0.242404L20.93 5.46755C21.5176 5.80545 21.88 6.43717 21.88 7.11786V17.5535C21.88 18.2293 21.5176 18.861 20.93 19.2038L11.8851 24.424C11.5962 24.5905 11.2681 24.6787 10.9351 24.6787ZM18.2366 14.39C18.2366 12.436 16.9144 11.917 14.1378 11.5497C11.3269 11.1775 11.0428 10.9865 11.0428 10.3303C11.0428 9.78675 11.2828 9.06198 13.364 9.06198C15.22 9.06198 15.9056 9.46354 16.1896 10.7172C16.2141 10.8347 16.3219 10.9229 16.4443 10.9229H17.6196C17.693 10.9229 17.7616 10.8935 17.8106 10.8396C17.8595 10.7857 17.884 10.7123 17.8791 10.6388C17.6979 8.47923 16.2631 7.47534 13.364 7.47534C10.7833 7.47534 9.24562 8.56248 9.24562 10.3891C9.24562 12.3675 10.7784 12.916 13.2514 13.1608C16.2141 13.4497 16.4443 13.8856 16.4443 14.4683C16.4443 15.4771 15.6314 15.9081 13.7264 15.9081C11.3318 15.9081 10.8078 15.3057 10.6315 14.1157C10.6119 13.9884 10.5042 13.8954 10.3719 13.8954H9.20155C9.05464 13.8954 8.94201 14.0129 8.94201 14.1549C8.94201 15.6779 9.76961 17.4947 13.7313 17.4947C16.5912 17.4898 18.2366 16.3586 18.2366 14.39Z" fill="white"/>
</svg>
