<svg width="22" height="23" viewBox="0 0 22 23" fill="none" xmlns="http://www.w3.org/2000/svg">
<mask id="path-1-inside-1_7_87" fill="white">
<path fill-rule="evenodd" clip-rule="evenodd" d="M21.8562 13.8821C21.7531 13.5702 21.4212 13.4699 20.8697 13.5838C19.2324 13.9217 18.6461 13.6876 18.4535 13.5458C19.7262 11.607 20.7731 9.26355 21.3379 7.07695C21.6055 6.0412 21.7533 5.07932 21.7653 4.29535C21.7787 3.43471 21.6322 2.8024 21.3299 2.41611C20.1111 0.858809 18.3224 0.0234905 16.1572 0.000533655C14.6688 -0.0161867 13.4111 0.364779 13.1673 0.471875C12.6539 0.344188 12.0941 0.265801 11.4849 0.255801C10.3674 0.237737 9.40153 0.505262 8.6018 1.05053C8.25444 0.921282 7.3567 0.613111 6.25891 0.436284C4.36086 0.130641 2.85264 0.362198 1.7763 1.12472C0.492004 2.03461 -0.100896 3.66105 0.0139961 5.95878C0.0526518 6.7319 0.49308 9.11 1.18824 11.3875C2.10323 14.3851 3.0978 16.0821 4.14435 16.4311C4.26682 16.472 4.40811 16.5006 4.56381 16.5006C4.94558 16.5006 5.41359 16.3285 5.90058 15.743C6.70944 14.7699 7.46466 13.9545 7.74304 13.6582C8.15444 13.8791 8.60632 14.0023 9.06863 14.0147C9.06943 14.0268 9.07067 14.0389 9.07174 14.0509C8.979 14.1609 8.90293 14.2573 8.83809 14.3397C8.51782 14.7462 8.45116 14.8308 7.42019 15.0431C7.12697 15.1036 6.34799 15.2642 6.33665 15.8101C6.32423 16.4066 7.25729 16.6572 7.36364 16.6837C7.73412 16.7765 8.091 16.8222 8.43137 16.8222C9.25922 16.8222 9.98765 16.5501 10.5699 16.0237C10.5519 18.1503 10.6406 20.2459 10.8959 20.8843C11.105 21.407 11.6159 22.6844 13.2297 22.6843C13.4665 22.6843 13.7271 22.6568 14.0139 22.5953C15.6981 22.2342 16.4294 21.4898 16.7123 19.8488C16.8637 18.9717 17.1236 16.8773 17.2457 15.7539C17.5036 15.8344 17.8357 15.8712 18.1946 15.8712C18.9432 15.8712 19.807 15.7121 20.3487 15.4607C20.9572 15.1781 22.0553 14.4845 21.8562 13.8821ZM17.8454 6.29071C17.8398 6.62238 17.7942 6.92345 17.7458 7.23775C17.6937 7.57576 17.6399 7.92522 17.6263 8.34947C17.6129 8.76231 17.6645 9.19156 17.7144 9.60661C17.8151 10.445 17.9185 11.3082 17.5183 12.1599C17.4561 12.0494 17.396 11.9289 17.3409 11.7954C17.2912 11.6748 17.1832 11.4811 17.0337 11.2129C16.4518 10.1694 15.0891 7.72565 15.7867 6.72845C15.9944 6.43157 16.5217 6.12647 17.8454 6.29071ZM16.241 0.672143C18.1809 0.714992 19.7155 1.44074 20.8021 2.82912C21.6354 3.89406 20.7178 8.73973 18.0613 12.9201C18.035 12.8868 18.0083 12.8531 17.9807 12.8186C17.9697 12.8048 17.9584 12.7907 17.9471 12.7765C18.6335 11.6428 18.4993 10.5212 18.3798 9.52667C18.3307 9.11855 18.2844 8.73307 18.2962 8.37103C18.3084 7.98716 18.3591 7.65807 18.4081 7.3398C18.4685 6.94754 18.5299 6.54174 18.5129 6.0633C18.5256 6.01314 18.5307 5.95384 18.5241 5.88346C18.4808 5.42464 17.9571 4.05169 16.8894 2.80885C16.3055 2.12918 15.4539 1.36848 14.2911 0.855421C14.7912 0.751766 15.4752 0.6551 16.241 0.672143ZM5.38526 15.3145C4.84876 15.9596 4.47822 15.836 4.35639 15.7954C3.56247 15.5306 2.64135 13.8527 1.8292 11.1919C1.12646 8.88957 0.715767 6.57448 0.683294 5.92529C0.58066 3.87218 1.07835 2.44127 2.16259 1.67235C3.92709 0.421015 6.82815 1.16999 7.99385 1.54988C7.97707 1.56639 7.95965 1.58187 7.94304 1.59864C6.0302 3.53051 6.07558 6.83114 6.08026 7.03286C6.08009 7.11071 6.0866 7.22093 6.09558 7.37254C6.12848 7.92764 6.18972 8.96086 6.02612 10.131C5.87402 11.2183 6.20918 12.2825 6.94552 13.0508C7.02176 13.1303 7.10133 13.205 7.18353 13.2752C6.85573 13.6263 6.14343 14.4024 5.38526 15.3145ZM7.42939 12.5871C6.8359 11.9679 6.56638 11.1066 6.68982 10.2238C6.86262 8.98769 6.7988 7.91119 6.76455 7.33286C6.75977 7.25195 6.75552 7.18103 6.75299 7.12507C7.03245 6.87733 8.32745 6.1834 9.25094 6.39502C9.67244 6.49158 9.92916 6.77851 10.0359 7.27216C10.5885 9.82769 10.1091 10.8928 9.72389 11.7488C9.64448 11.9251 9.56948 12.0918 9.5054 12.2642L9.45578 12.3975C9.33008 12.7346 9.21314 13.0479 9.14067 13.3455C8.50981 13.3435 7.89605 13.0741 7.42939 12.5871ZM7.52622 16.0336C7.34202 15.9875 7.17632 15.9076 7.07912 15.8413C7.1603 15.8031 7.30482 15.7511 7.55541 15.6995C8.76825 15.4498 8.95551 15.2736 9.36454 14.7543C9.45836 14.6352 9.56465 14.5002 9.71185 14.3358C9.7118 14.3359 9.7119 14.3357 9.71185 14.3358C9.93115 14.0904 10.0316 14.1317 10.2135 14.2072C10.3609 14.2682 10.5044 14.4529 10.5627 14.6563C10.5902 14.7523 10.6211 14.9346 10.5199 15.0764C9.66545 16.2727 8.4204 16.2573 7.52622 16.0336ZM13.8734 21.94C12.3897 22.2579 11.8644 21.5009 11.5182 20.6355C11.2947 20.0767 11.185 17.5572 11.2629 14.7749C11.2639 14.7379 11.2586 14.7021 11.2484 14.6685C11.2395 14.6036 11.2259 14.538 11.2069 14.4719C11.091 14.0671 10.8087 13.7284 10.47 13.588C10.3354 13.5323 10.0884 13.43 9.79158 13.5059C9.85491 13.2451 9.9647 12.9506 10.0837 12.6317L10.1336 12.4975C10.1899 12.3463 10.2603 12.1896 10.335 12.0238C10.7381 11.1282 11.2902 9.90161 10.691 7.1305C10.4665 6.0926 9.71706 5.58577 8.58089 5.70346C7.89971 5.77394 7.27659 6.04878 6.96579 6.20636C6.89896 6.24023 6.83783 6.27292 6.78074 6.3048C6.86746 5.259 7.19525 3.30466 8.42126 2.06816C9.19314 1.28967 10.2212 0.905207 11.4738 0.925906C13.9418 0.966335 15.5244 2.23289 16.4176 3.28831C17.1872 4.19782 17.604 5.11395 17.7703 5.60803C16.5195 5.48088 15.6688 5.72782 15.2375 6.34432C14.2994 7.68539 15.7508 10.2884 16.4484 11.5393C16.5763 11.7686 16.6867 11.9668 16.7214 12.051C16.9486 12.6015 17.2427 12.969 17.4574 13.2373C17.5232 13.3196 17.5871 13.3993 17.6356 13.4689C17.2568 13.5782 16.5763 13.8305 16.6383 15.0918C16.5883 15.7248 16.2326 18.688 16.052 19.7349C15.8135 21.118 15.3045 21.6332 13.8734 21.94ZM20.0665 14.8528C19.6791 15.0327 19.0308 15.1676 18.415 15.1965C17.7348 15.2284 17.3885 15.1203 17.3071 15.0538C17.2688 14.2678 17.5614 14.1857 17.8711 14.0987C17.9197 14.085 17.9672 14.0718 18.013 14.0557C18.0415 14.0789 18.0727 14.1019 18.1068 14.1244C18.6535 14.4853 19.6287 14.5242 21.0053 14.2401C21.0103 14.239 21.0154 14.238 21.0204 14.237C20.8347 14.4106 20.517 14.6436 20.0665 14.8528Z"/>
</mask>
<path d="M21.8562 13.8821L29.452 11.3714L29.4517 11.3703L21.8562 13.8821ZM20.8697 13.5838L22.4867 21.4187L22.4883 21.4184L20.8697 13.5838ZM18.4535 13.5458L11.7657 9.15577L7.60532 15.4937L13.7107 19.9883L18.4535 13.5458ZM21.3379 7.07695L13.5922 5.07589L13.5921 5.07627L21.3379 7.07695ZM21.7653 4.29535L13.7663 4.17143L13.7663 4.17247L21.7653 4.29535ZM21.3299 2.41611L27.6299 -2.51433L27.6299 -2.51435L21.3299 2.41611ZM16.1572 0.000533655L16.0674 8.00003L16.0724 8.00008L16.1572 0.000533655ZM13.1673 0.471875L11.2366 8.2354L13.8855 8.89416L16.3846 7.79642L13.1673 0.471875ZM11.4849 0.255801L11.6161 -7.74312L11.6142 -7.74315L11.4849 0.255801ZM8.6018 1.05053L5.81203 8.54834L9.68989 9.99121L13.1085 7.66036L8.6018 1.05053ZM6.25891 0.436284L7.53112 -7.46191L7.53076 -7.46197L6.25891 0.436284ZM1.7763 1.12472L-2.84831 -5.40314L-2.84845 -5.40304L1.7763 1.12472ZM0.0139961 5.95878L8.00401 5.55928L8.00401 5.55926L0.0139961 5.95878ZM1.18824 11.3875L-6.46328 13.723L-6.46324 13.7231L1.18824 11.3875ZM4.14435 16.4311L6.67617 8.84229L6.67534 8.84202L4.14435 16.4311ZM5.90058 15.743L12.0508 20.8591L12.0528 20.8568L5.90058 15.743ZM7.74304 13.6582L11.527 6.60971L6.11721 3.70542L1.91279 8.18024L7.74304 13.6582ZM9.06863 14.0147L17.0509 13.4826L16.5663 6.21239L9.28253 6.01757L9.06863 14.0147ZM9.07174 14.0509L15.188 19.2076L17.3365 16.6593L17.04 13.3395L9.07174 14.0509ZM8.83809 14.3397L15.1224 19.2901L15.1225 19.29L8.83809 14.3397ZM7.42019 15.0431L5.80658 7.20757L5.80405 7.20809L7.42019 15.0431ZM6.33665 15.8101L14.3349 15.9767L14.3349 15.9763L6.33665 15.8101ZM7.36364 16.6837L9.30631 8.92318L9.30207 8.92212L7.36364 16.6837ZM8.43137 16.8222V24.8222H8.43189L8.43137 16.8222ZM10.5699 16.0237L18.5696 16.0913L18.7235 -2.13344L5.20456 10.0896L10.5699 16.0237ZM10.8959 20.8843L3.46781 23.8547L3.46827 23.8559L10.8959 20.8843ZM13.2297 22.6843V14.6843H13.2292L13.2297 22.6843ZM14.0139 22.5953L15.6904 30.4177L15.6911 30.4175L14.0139 22.5953ZM16.7123 19.8488L8.82894 18.4879L8.82868 18.4894L16.7123 19.8488ZM17.2457 15.7539L19.6275 8.11672L10.3438 5.2215L9.29261 14.8892L17.2457 15.7539ZM18.1946 15.8712V7.87115H18.1934L18.1946 15.8712ZM20.3487 15.4607L23.7169 22.7171L23.7182 22.7164L20.3487 15.4607ZM17.8454 6.29071L25.8443 6.42556L25.9655 -0.763089L18.8305 -1.6484L17.8454 6.29071ZM17.7458 7.23775L25.6526 8.45516L25.6526 8.45502L17.7458 7.23775ZM17.6263 8.34947L25.6221 8.60874L25.6222 8.60482L17.6263 8.34947ZM17.7144 9.60661L25.6572 8.65208L25.6572 8.65183L17.7144 9.60661ZM17.5183 12.1599L10.5472 16.0847L18.1593 29.6049L24.7586 15.5625L17.5183 12.1599ZM17.3409 11.7954L9.94516 14.8453L9.94519 14.8454L17.3409 11.7954ZM17.0337 11.2129L24.0207 7.31663L24.0207 7.31662L17.0337 11.2129ZM15.7867 6.72845L9.23202 2.14187L9.23137 2.1428L15.7867 6.72845ZM16.241 0.672143L16.0629 8.67016L16.0643 8.67019L16.241 0.672143ZM20.8021 2.82912L27.1024 -2.10097L27.1021 -2.10133L20.8021 2.82912ZM18.0613 12.9201L11.7749 17.868L18.7579 26.7398L24.8133 17.2108L18.0613 12.9201ZM17.9807 12.8186L11.7266 17.8073L11.7311 17.8129L11.7356 17.8185L17.9807 12.8186ZM17.9471 12.7765L11.1038 8.63298L8.21167 13.4094L11.6978 17.7712L17.9471 12.7765ZM18.3798 9.52667L26.3227 8.57256L26.3226 8.57136L18.3798 9.52667ZM18.2962 8.37103L26.2919 8.63106L26.2921 8.62524L18.2962 8.37103ZM18.4081 7.3398L26.3149 8.55786L26.315 8.55682L18.4081 7.3398ZM18.5129 6.0633L10.7552 4.10932L10.4778 5.21096L10.5179 6.3463L18.5129 6.0633ZM18.5241 5.88346L26.489 5.13504L26.4888 5.13309L18.5241 5.88346ZM16.8894 2.80885L22.9579 -2.40405L22.9576 -2.40439L16.8894 2.80885ZM14.2911 0.855421L12.6676 -6.97812L-11.7917 -1.90905L11.0616 8.17461L14.2911 0.855421ZM5.38526 15.3145L11.5359 20.4302L11.5374 20.4284L5.38526 15.3145ZM4.35639 15.7954L1.82487 23.3843L1.82758 23.3852L4.35639 15.7954ZM1.8292 11.1919L9.48072 8.85642L9.4807 8.85638L1.8292 11.1919ZM0.683294 5.92529L-7.30673 6.3247L-7.30672 6.32495L0.683294 5.92529ZM2.16259 1.67235L-2.46519 -4.85326L-2.46522 -4.85324L2.16259 1.67235ZM7.99385 1.54988L13.6048 7.25224L22.9859 -1.97844L10.4727 -6.0564L7.99385 1.54988ZM7.94304 1.59864L2.25892 -4.03082L2.25825 -4.03014L7.94304 1.59864ZM6.08026 7.03286L14.0802 7.04944L14.0804 6.94841L14.0781 6.84741L6.08026 7.03286ZM6.09558 7.37254L-1.89043 7.84547L-1.89041 7.8459L6.09558 7.37254ZM6.02612 10.131L13.949 11.2392L13.949 11.2387L6.02612 10.131ZM6.94552 13.0508L1.1699 18.5863L1.17083 18.5873L6.94552 13.0508ZM7.18353 13.2752L13.0305 18.7354L18.7358 12.6258L12.3817 7.19418L7.18353 13.2752ZM7.42939 12.5871L13.2055 7.05203L13.2048 7.05135L7.42939 12.5871ZM6.68982 10.2238L14.6127 11.3316L14.6128 11.3313L6.68982 10.2238ZM6.76455 7.33286L-1.2215 7.80513L-1.22146 7.80577L6.76455 7.33286ZM6.75299 7.12507L1.44609 1.13868L-1.41108 3.67155L-1.23887 7.48589L6.75299 7.12507ZM9.25094 6.39502L7.4641 14.1929L7.46456 14.193L9.25094 6.39502ZM10.0359 7.27216L17.8552 5.58141L17.8551 5.58093L10.0359 7.27216ZM9.72389 11.7488L17.0184 15.0335L17.0191 15.0321L9.72389 11.7488ZM9.5054 12.2642L17.0026 15.0557L17.0045 15.0507L9.5054 12.2642ZM9.45578 12.3975L16.9515 15.193L16.953 15.1889L9.45578 12.3975ZM9.14067 13.3455L9.11613 21.3454L15.4215 21.3648L16.9135 15.2385L9.14067 13.3455ZM7.52622 16.0336L9.46826 8.27287L9.46543 8.27216L7.52622 16.0336ZM7.07912 15.8413L3.67113 8.60352L-8.99065 14.5655L2.57174 22.4507L7.07912 15.8413ZM7.55541 15.6995L5.94202 7.86391L5.94157 7.86401L7.55541 15.6995ZM9.36454 14.7543L3.08148 9.80218L3.07969 9.80446L9.36454 14.7543ZM10.2135 14.2072L7.14879 21.5969L7.15377 21.5989L10.2135 14.2072ZM10.5627 14.6563L2.87176 16.8586L2.87241 16.8609L10.5627 14.6563ZM10.5199 15.0764L17.03 19.726L17.0304 19.7253L10.5199 15.0764ZM13.8734 21.94L15.5494 29.7625L15.5504 29.7623L13.8734 21.94ZM11.5182 20.6355L4.09007 23.6059L4.0904 23.6067L11.5182 20.6355ZM11.2629 14.7749L19.2597 14.9988L19.2598 14.9954L11.2629 14.7749ZM11.2484 14.6685L3.32212 15.7521L3.40858 16.3846L3.59426 16.9954L11.2484 14.6685ZM11.2069 14.4719L3.51599 16.674L3.51618 16.6746L11.2069 14.4719ZM10.47 13.588L13.5329 6.19761L13.532 6.19724L10.47 13.588ZM9.79158 13.5059L2.01751 11.6181L-1.12406 24.5551L11.7738 21.2564L9.79158 13.5059ZM10.0837 12.6317L17.5791 15.4279L17.5812 15.4223L10.0837 12.6317ZM10.1336 12.4975L17.6311 15.2881L17.632 15.2857L10.1336 12.4975ZM10.335 12.0238L3.0399 8.7402L3.03977 8.7405L10.335 12.0238ZM10.691 7.1305L18.5103 5.43975L18.5102 5.43947L10.691 7.1305ZM8.58089 5.70346L9.40427 13.661L9.40513 13.6609L8.58089 5.70346ZM6.96579 6.20636L10.5825 13.3422L10.5834 13.3417L6.96579 6.20636ZM6.78074 6.3048L-1.1919 5.64369L-2.43313 20.6123L10.6809 13.2897L6.78074 6.3048ZM8.42126 2.06816L14.1022 7.70088L14.1022 7.70083L8.42126 2.06816ZM11.4738 0.925906L11.3416 8.92481L11.3427 8.92483L11.4738 0.925906ZM16.4176 3.28831L22.5245 -1.87936L22.5243 -1.87962L16.4176 3.28831ZM17.7703 5.60803L16.9612 13.567L29.3138 14.8227L25.3521 3.05545L17.7703 5.60803ZM15.2375 6.34432L8.68235 1.7585L8.68233 1.75852L15.2375 6.34432ZM16.4484 11.5393L9.46128 15.4356L9.46177 15.4364L16.4484 11.5393ZM16.7214 12.051L9.32597 15.1017L9.32618 15.1022L16.7214 12.051ZM17.4574 13.2373L11.2112 18.2358L11.212 18.2369L17.4574 13.2373ZM17.6356 13.4689L19.8524 21.1556L30.5893 18.0592L24.1978 8.89311L17.6356 13.4689ZM16.6383 15.0918L24.6135 15.7218L24.6538 15.2109L24.6287 14.6991L16.6383 15.0918ZM16.052 19.7349L8.16847 18.3746L8.16832 18.3755L16.052 19.7349ZM20.0665 14.8528L23.4352 22.109L23.4356 22.1088L20.0665 14.8528ZM18.415 15.1965L18.7895 23.1877L18.7903 23.1877L18.415 15.1965ZM17.3071 15.0538L9.31655 15.443L9.48981 19.0008L12.2499 21.2526L17.3071 15.0538ZM17.8711 14.0987L20.0336 21.8009L20.0407 21.7989L17.8711 14.0987ZM18.013 14.0557L23.0604 7.84897L19.5918 5.02829L15.3718 6.50431L18.013 14.0557ZM18.1068 14.1244L22.5138 7.4477L22.5128 7.44708L18.1068 14.1244ZM21.0053 14.2401L22.6224 22.0749L22.6463 22.07L22.6701 22.0649L21.0053 14.2401ZM21.0204 14.237L26.4845 20.0802L47.1798 0.727531L19.4191 6.39892L21.0204 14.237ZM29.4517 11.3703C28.5335 8.59389 26.3508 6.67296 23.8467 5.91573C21.8429 5.30981 20.1003 5.57383 19.2512 5.74924L22.4883 21.4184C22.1907 21.4798 20.8897 21.7371 19.2155 21.2308C18.2859 20.9497 17.2075 20.4195 16.2283 19.49C15.2371 18.5491 14.6087 17.4461 14.2607 16.3938L29.4517 11.3703ZM19.2528 5.74891C18.9256 5.81642 19.1959 5.71881 19.8417 5.77733C20.5146 5.8383 21.8266 6.09499 23.1964 7.10336L13.7107 19.9883C16.7388 22.2176 20.2567 21.8789 22.4867 21.4187L19.2528 5.74891ZM25.1414 17.9359C26.8786 15.2895 28.2921 12.1423 29.0837 9.07763L13.5921 5.07627C13.2541 6.3848 12.5739 7.92459 11.7657 9.15577L25.1414 17.9359ZM29.0836 9.078C29.4566 7.63428 29.7398 6.01825 29.7644 4.41823L13.7663 4.17247C13.767 4.12845 13.7684 4.19345 13.7403 4.37674C13.7133 4.55224 13.6665 4.78835 13.5922 5.07589L29.0836 9.078ZM29.7644 4.41927C29.7868 2.96894 29.6403 0.0544871 27.6299 -2.51433L15.0298 7.34655C14.27 6.3757 13.9832 5.46148 13.8725 4.98379C13.7595 4.49648 13.766 4.19075 13.7663 4.17143L29.7644 4.41927ZM27.6299 -2.51435C24.758 -6.18406 20.5741 -7.95309 16.2421 -7.99902L16.0724 8.00008C16.1424 8.00083 15.9875 8.00951 15.7134 7.88148C15.4249 7.74674 15.1837 7.54324 15.0298 7.34657L27.6299 -2.51435ZM16.2471 -7.99896C13.657 -8.02806 11.2683 -7.43174 9.95001 -6.85267L16.3846 7.79642C16.2335 7.86278 16.1148 7.9088 16.0498 7.93334C15.9775 7.9606 15.9204 7.98061 15.8822 7.99362C15.8066 8.01934 15.7588 8.0334 15.7415 8.03839C15.7064 8.04849 15.7196 8.04342 15.7694 8.03342C15.8172 8.02384 15.8765 8.01418 15.9384 8.00763C16.0011 8.001 16.0453 7.99978 16.0674 8.00003L16.2471 -7.99896ZM15.098 -7.29165C14.0009 -7.5645 12.8376 -7.72307 11.6161 -7.74312L11.3536 8.25472C11.3547 8.25474 11.3429 8.25456 11.3204 8.2516C11.2978 8.24863 11.2693 8.24354 11.2366 8.2354L15.098 -7.29165ZM11.6142 -7.74315C9.09779 -7.78383 6.45468 -7.16809 4.09512 -5.5593L13.1085 7.66036C12.7595 7.89832 12.3932 8.05957 12.0525 8.15361C11.7203 8.24529 11.4735 8.25666 11.3555 8.25476L11.6142 -7.74315ZM11.3916 -6.44728C10.7662 -6.67998 9.33132 -7.17194 7.53112 -7.46191L4.9867 8.33448C5.1634 8.36294 5.35056 8.40692 5.52164 8.45562C5.68866 8.50316 5.79744 8.54291 5.81203 8.54834L11.3916 -6.44728ZM7.53076 -7.46197C4.50744 -7.94881 0.585491 -7.83579 -2.84831 -5.40314L6.40091 7.65258C5.78022 8.0923 5.21525 8.24248 4.92376 8.28724C4.66391 8.32715 4.65398 8.2809 4.98705 8.33454L7.53076 -7.46197ZM-2.84845 -5.40304C-7.28752 -2.25808 -8.15946 2.68973 -7.97602 6.3583L8.00401 5.55926C7.9831 5.14109 8.05847 5.28986 7.88658 5.76135C7.68029 6.32721 7.21245 7.07763 6.40104 7.65249L-2.84845 -5.40304ZM-7.97602 6.35828C-7.89004 8.07802 -7.24156 11.1731 -6.46328 13.723L8.83975 9.05207C8.57517 8.18523 8.34947 7.26396 8.18912 6.48867C8.10973 6.10485 8.05379 5.79261 8.01945 5.57359C7.97525 5.29173 7.99242 5.3273 8.00401 5.55928L-7.97602 6.35828ZM-6.46324 13.7231C-5.9181 15.509 -5.22454 17.3446 -4.28493 18.9477C-3.49757 20.2911 -1.72016 22.9084 1.61336 24.0202L6.67534 8.84202C7.90065 9.25066 8.66819 9.90176 9.02982 10.2638C9.22069 10.4549 9.34641 10.6128 9.41606 10.7067C9.45227 10.7555 9.47798 10.7934 9.49399 10.8178C9.51005 10.8423 9.51813 10.8561 9.51885 10.8573C9.51932 10.8581 9.49766 10.821 9.4572 10.737C9.4171 10.6537 9.36403 10.5358 9.29996 10.3782C9.16999 10.0585 9.01401 9.62295 8.83971 9.05193L-6.46324 13.7231ZM1.61253 24.0199C2.42244 24.2901 3.42145 24.5006 4.56381 24.5006V8.50056C5.39478 8.50056 6.1112 8.65381 6.67617 8.84229L1.61253 24.0199ZM4.56381 24.5006C7.74282 24.5006 10.3351 22.9217 12.0508 20.8591L-0.24968 10.6269C0.0646544 10.2491 0.636397 9.68935 1.52944 9.22935C2.45541 8.75239 3.50142 8.50056 4.56381 8.50056V24.5006ZM12.0528 20.8568C12.7182 20.0563 13.3529 19.3708 13.5733 19.1362L1.91279 8.18024C1.57643 8.53822 0.700718 9.48356 -0.251595 10.6292L12.0528 20.8568ZM3.95904 20.7067C5.43193 21.4974 7.102 21.965 8.85472 22.0118L9.28253 6.01757C10.1106 6.03972 10.8769 6.2607 11.527 6.60971L3.95904 20.7067ZM1.08634 14.5468C1.09273 14.6427 1.09949 14.7188 1.10234 14.7505C1.10313 14.7593 1.10381 14.7667 1.10425 14.7715C1.10465 14.7758 1.10505 14.7801 1.10508 14.7804C1.10543 14.7842 1.10454 14.7747 1.10345 14.7624L17.04 13.3395C17.0384 13.3212 17.037 13.3056 17.0368 13.3034C17.0362 13.2971 17.037 13.3055 17.0378 13.3152C17.0396 13.3348 17.0453 13.3988 17.0509 13.4826L1.08634 14.5468ZM2.95548 8.89427C2.76956 9.11478 2.62208 9.30245 2.55368 9.38929L15.1225 19.29C15.1838 19.2122 15.1884 19.2071 15.188 19.2076L2.95548 8.89427ZM2.55378 9.38916C2.39616 9.58924 2.62071 9.28821 2.92696 8.9773C3.36955 8.52796 3.94393 8.07012 4.64448 7.69822C5.24502 7.3794 5.7252 7.2393 5.85647 7.20221C5.98547 7.16577 6.01572 7.1645 5.80658 7.20757L9.03381 22.8787C9.37317 22.8088 10.7848 22.5533 12.1468 21.8303C14.0332 20.8288 15.0793 19.3448 15.1224 19.2901L2.55378 9.38916ZM5.80405 7.20809C5.74889 7.21947 4.4984 7.44007 3.20651 8.08343C2.0744 8.64721 -1.56183 10.8409 -1.66162 15.6439L14.3349 15.9763C14.2465 20.2334 11.0054 22.0738 10.3389 22.4057C9.51267 22.8172 8.79827 22.9273 9.03633 22.8782L5.80405 7.20809ZM-1.66162 15.6436C-1.76553 20.6344 2.07823 22.9717 2.82554 23.4003C4.02603 24.0888 5.1274 24.371 5.4252 24.4453L9.30207 8.92212C9.49352 8.96994 10.0752 9.1135 10.7857 9.52098C11.152 9.73105 11.9375 10.2267 12.6911 11.1563C13.5259 12.186 14.3793 13.8471 14.3349 15.9767L-1.66162 15.6436ZM5.42096 24.4443C6.36297 24.6801 7.37343 24.8222 8.43137 24.8222V8.82222C8.80857 8.82222 9.10527 8.87286 9.30631 8.92318L5.42096 24.4443ZM8.43189 24.8222C11.124 24.822 13.797 23.891 15.9352 21.9578L5.20456 10.0896C6.17827 9.20924 7.39446 8.82229 8.43085 8.82222L8.43189 24.8222ZM2.57014 15.9562C2.56024 17.1285 2.57837 18.3776 2.6446 19.4883C2.67738 20.0381 2.72731 20.6481 2.80935 21.2446C2.86784 21.6699 3.0208 22.7369 3.46781 23.8547L18.324 17.914C18.5178 18.3985 18.6 18.7644 18.6229 18.8689C18.6535 19.0089 18.6628 19.0836 18.6601 19.0645C18.6543 19.0221 18.6353 18.8555 18.6162 18.5359C18.5788 17.9075 18.5615 17.0456 18.5696 16.0913L2.57014 15.9562ZM3.46827 23.8559C3.56929 24.1084 4.19993 25.8297 5.66152 27.4108C7.37991 29.2697 9.97844 30.6845 13.2303 30.6843L13.2292 14.6843C13.9163 14.6842 14.7296 14.8282 15.5565 15.2085C16.3689 15.5821 16.981 16.0852 17.4106 16.5499C18.161 17.3617 18.4316 18.1829 18.3236 17.9128L3.46827 23.8559ZM13.2297 30.6843C14.0873 30.6843 14.9116 30.5846 15.6904 30.4177L12.3373 14.773C12.5427 14.7289 12.8456 14.6843 13.2297 14.6843V30.6843ZM15.6911 30.4175C17.3224 30.0677 19.6367 29.3021 21.5951 27.3087C23.585 25.2834 24.3012 22.9182 24.596 21.2081L8.82868 18.4894C8.84058 18.4204 9.04956 17.2479 10.182 16.0953C10.716 15.5518 11.2666 15.2105 11.692 15.0097C11.8947 14.9141 12.0584 14.8551 12.1649 14.8211C12.2706 14.7873 12.3326 14.774 12.3366 14.7731L15.6911 30.4175ZM24.5958 21.2096C24.7933 20.065 25.0754 17.7542 25.1989 16.6187L9.29261 14.8892C9.17177 16.0005 8.93414 17.8785 8.82894 18.4879L24.5958 21.2096ZM14.864 23.3912C16.1834 23.8026 17.4024 23.8713 18.1958 23.8711L18.1934 7.87115C18.2789 7.87114 18.4302 7.87503 18.6374 7.89995C18.8315 7.92329 19.1813 7.97755 19.6275 8.11672L14.864 23.3912ZM18.1946 23.8712C19.7472 23.8712 21.8363 23.59 23.7169 22.7171L16.9805 8.20428C17.271 8.0694 17.4919 7.99749 17.6062 7.96346C17.7299 7.92662 17.8171 7.90814 17.8657 7.89896C17.9434 7.88429 18.0376 7.87115 18.1946 7.87115V23.8712ZM23.7182 22.7164C24.4522 22.3756 25.5904 21.7562 26.6631 20.8209C27.1836 20.367 28.0886 19.497 28.8063 18.187C29.565 16.8021 30.4184 14.2952 29.452 11.3714L14.2604 16.3928C13.3935 13.7702 14.1843 11.5759 14.7742 10.4993C15.3229 9.49766 15.9527 8.93167 16.1475 8.76174C16.5687 8.39447 16.8537 8.26317 16.9791 8.20489L23.7182 22.7164ZM9.84655 6.15586C9.84929 5.99296 9.86144 5.87891 9.86529 5.84585C9.86697 5.83141 9.86694 5.83381 9.86259 5.864C9.85772 5.89787 9.8514 5.93955 9.83894 6.02048L25.6526 8.45502C25.6941 8.18557 25.8283 7.37595 25.8443 6.42556L9.84655 6.15586ZM9.83896 6.02035C9.78859 6.3475 9.66115 7.13136 9.6304 8.09412L25.6222 8.60482C25.6186 8.71908 25.5989 8.80402 25.6526 8.45516L9.83896 6.02035ZM9.63053 8.09019C9.59394 9.21861 9.73578 10.2637 9.77157 10.5614L25.6572 8.65183C25.6508 8.59852 25.6456 8.55563 25.6408 8.51418C25.636 8.47373 25.6322 8.44069 25.629 8.41213C25.6259 8.38375 25.6237 8.36233 25.622 8.34609C25.6204 8.32993 25.6196 8.3207 25.6193 8.31712C25.6186 8.30869 25.6207 8.3313 25.6224 8.37705C25.624 8.42293 25.6256 8.50248 25.6221 8.60874L9.63053 8.09019ZM9.77154 10.5611C9.79951 10.7939 9.80651 10.8598 9.80995 10.9012C9.81207 10.9267 9.80256 10.8305 9.80715 10.6612C9.81743 10.2825 9.8972 9.56744 10.2779 8.75727L24.7586 15.5625C26.2769 12.3317 25.7212 9.18431 25.6572 8.65208L9.77154 10.5611ZM24.4893 8.23505C24.5695 8.37738 24.6556 8.54874 24.7367 8.74532L9.94519 14.8454C10.1364 15.309 10.3427 15.7214 10.5472 16.0847L24.4893 8.23505ZM24.7367 8.74539C24.4582 8.07 24.032 7.3369 24.0207 7.31663L10.0467 15.1093C10.0857 15.1793 10.1131 15.2284 10.1366 15.271C10.1477 15.2911 10.1559 15.306 10.162 15.3172C10.165 15.3227 10.1672 15.3267 10.1688 15.3296C10.1703 15.3324 10.171 15.3337 10.171 15.3336C10.1709 15.3335 10.1699 15.3317 10.1681 15.3283C10.1663 15.3248 10.1634 15.3194 10.1597 15.3121C10.1525 15.2982 10.1398 15.2735 10.1232 15.2399C10.1068 15.2069 10.083 15.158 10.0546 15.0964C10.0267 15.0357 9.98847 14.9503 9.94516 14.8453L24.7367 8.74539ZM24.0207 7.31662C23.6957 6.73377 23.5021 6.35966 23.4169 6.13332C23.3708 6.0112 23.5059 6.31195 23.5653 6.90332C23.6115 7.36313 23.7514 9.29931 22.3419 11.3141L9.23137 2.1428C7.47316 4.65619 7.52176 7.2718 7.64546 8.50288C7.78237 9.86553 8.16365 11.0294 8.44386 11.7733C9.01103 13.279 9.78975 14.6486 10.0467 15.1093L24.0207 7.31662ZM22.3413 11.315C21.2615 12.8582 19.8073 13.6807 18.6062 14.0257C18.0579 14.1832 17.6135 14.229 17.334 14.2409C17.0541 14.2528 16.8855 14.233 16.8603 14.2298L18.8305 -1.6484C16.4716 -1.9411 12.0112 -1.82981 9.23202 2.14187L22.3413 11.315ZM16.0643 8.67019C16.0758 8.67045 15.8137 8.66364 15.4214 8.47811C15.0093 8.28321 14.693 8.00362 14.502 7.75957L27.1021 -2.10133C24.3765 -5.5841 20.4814 -7.23615 16.4176 -7.32591L16.0643 8.67019ZM14.5017 7.75921C13.9991 7.11692 13.699 6.51078 13.5209 6.07021C13.3408 5.6247 13.2457 5.24998 13.1939 4.99563C13.0944 4.50807 13.0991 4.19218 13.0999 4.14358C13.1015 4.04302 13.1031 4.25999 12.97 4.80315C12.7095 5.86682 12.1474 7.3104 11.3092 8.62938L24.8133 17.2108C26.6316 14.3494 27.8566 11.28 28.5107 8.6095C28.8349 7.28558 29.0757 5.83018 29.098 4.39091C29.1091 3.67295 29.0695 2.77111 28.8712 1.79839C28.6909 0.914398 28.2639 -0.616681 27.1024 -2.10097L14.5017 7.75921ZM24.3476 7.97215C24.3072 7.92085 24.2667 7.86985 24.2257 7.81865L11.7356 17.8185C11.7499 17.8364 11.7629 17.8527 11.7749 17.868L24.3476 7.97215ZM24.2347 7.82992C24.2208 7.8125 24.2012 7.78794 24.1963 7.78185L11.6978 17.7712C11.7156 17.7935 11.7185 17.797 11.7266 17.8073L24.2347 7.82992ZM24.7904 16.9201C27.0665 13.1609 26.4213 9.39322 26.3227 8.57256L10.4369 10.4808C10.47 10.7565 10.4765 10.8233 10.4792 10.8613C10.4804 10.8781 10.4704 10.7576 10.4842 10.5544C10.4988 10.3417 10.5393 10.0378 10.6439 9.68079C10.7505 9.31699 10.9055 8.96044 11.1038 8.63298L24.7904 16.9201ZM26.3226 8.57136C26.3163 8.51892 26.3112 8.47672 26.3064 8.43628C26.3017 8.39674 26.2981 8.36499 26.2951 8.338C26.2921 8.31118 26.2901 8.29193 26.2887 8.27828C26.2873 8.26471 26.2868 8.25882 26.2869 8.25912C26.2869 8.25946 26.2876 8.26773 26.2885 8.28269C26.2895 8.29766 26.2908 8.32088 26.2919 8.35121C26.2941 8.41068 26.296 8.50666 26.2919 8.63106L10.3004 8.11099C10.2651 9.19714 10.4051 10.2159 10.4371 10.482L26.3226 8.57136ZM26.2921 8.62524C26.2907 8.66964 26.2883 8.70712 26.286 8.73561C26.2838 8.76368 26.2818 8.78025 26.2817 8.78113C26.2817 8.78142 26.2821 8.77786 26.2832 8.76949C26.2843 8.76102 26.2861 8.74844 26.2887 8.73025C26.2914 8.71183 26.2947 8.68951 26.2991 8.66049C26.3037 8.63043 26.3085 8.59921 26.3149 8.55786L10.5014 6.12173C10.4563 6.41431 10.3297 7.1875 10.3002 8.11681L26.2921 8.62524ZM26.315 8.55682C26.3733 8.17809 26.5545 7.09631 26.5079 5.7803L10.5179 6.3463C10.5112 6.15644 10.5219 6.01249 10.5283 5.94769C10.531 5.91989 10.5323 5.91348 10.5284 5.94211C10.5236 5.97667 10.5169 6.02111 10.5013 6.12277L26.315 8.55682ZM26.2706 8.01728C26.528 6.99534 26.5717 6.01496 26.489 5.13504L10.5591 6.63188C10.4897 5.89271 10.5231 5.03093 10.7552 4.10932L26.2706 8.01728ZM26.4888 5.13309C26.3315 3.463 25.6882 1.97176 25.2882 1.14738C24.7612 0.0615404 24.001 -1.18967 22.9579 -2.40405L10.821 8.02175C10.8265 8.02807 10.842 8.04756 10.8618 8.07826C10.8709 8.09242 10.8787 8.10565 10.885 8.11673C10.8912 8.1279 10.8941 8.13389 10.8937 8.13295C10.8934 8.13236 10.8874 8.12002 10.8766 8.09391C10.8663 8.06899 10.8468 8.01987 10.8216 7.94544C10.7981 7.87575 10.758 7.74978 10.7149 7.5737C10.6784 7.42482 10.6024 7.09052 10.5593 6.63383L26.4888 5.13309ZM22.9576 -2.40439C21.8105 -3.7396 20.0401 -5.35206 17.5205 -6.46377L11.0616 8.17461C10.9639 8.1315 10.8968 8.0854 10.861 8.05721C10.8282 8.03145 10.8176 8.01776 10.8213 8.0221L22.9576 -2.40439ZM15.9145 8.68896C15.9417 8.68334 15.9764 8.67749 16.0119 8.67371C16.0482 8.66986 16.066 8.67023 16.0629 8.67016L16.419 -7.32588C14.8996 -7.35969 13.5939 -7.1701 12.6676 -6.97812L15.9145 8.68896ZM-0.765383 10.1989C-0.32019 9.66365 0.800539 8.55492 2.73645 8.06069C3.69212 7.81672 4.61735 7.7858 5.44452 7.88487C5.84308 7.93261 6.18251 8.00605 6.44772 8.07578C6.70008 8.14213 6.89907 8.21021 6.88521 8.2056L1.82758 23.3852C2.34135 23.5564 4.26256 24.1843 6.6942 23.5635C8.97996 22.9799 10.5542 21.6105 11.5359 20.4302L-0.765383 10.1989ZM6.88791 8.2065C7.76084 8.49769 8.40698 8.89876 8.82743 9.21146C9.2503 9.52597 9.53968 9.82145 9.70994 10.0123C10.0323 10.3735 10.1495 10.6099 10.1124 10.5423C10.0418 10.4137 9.79772 9.89501 9.48072 8.85642L-5.82231 13.5273C-5.32717 15.1495 -4.70463 16.8002 -3.91314 18.2419C-3.51918 18.9596 -2.97209 19.8313 -2.22836 20.6648C-1.55553 21.4189 -0.232868 22.6979 1.82487 23.3843L6.88791 8.2065ZM9.4807 8.85638C9.21493 7.98565 8.99522 7.07874 8.84144 6.32973C8.76532 5.95899 8.71233 5.66082 8.68043 5.45765C8.63637 5.17697 8.65954 5.25055 8.6733 5.52562L-7.30672 6.32495C-7.22749 7.9088 -6.61388 10.934 -5.8223 13.5274L9.4807 8.85638ZM8.67332 5.52587C8.65596 5.17872 8.72304 5.40145 8.53384 5.9454C8.31134 6.58509 7.78591 7.49195 6.7904 8.19795L-2.46522 -4.85324C-6.8171 -1.76699 -7.46723 3.11409 -7.30673 6.3247L8.67332 5.52587ZM6.79037 8.19797C6.07241 8.70712 5.42831 8.87929 5.11272 8.93781C4.80663 8.99456 4.65959 8.97382 4.73028 8.9789C4.78617 8.9829 4.90871 8.99852 5.08609 9.03836C5.25591 9.0765 5.40958 9.12179 5.51502 9.15615L10.4727 -6.0564C9.58548 -6.34552 7.87734 -6.83644 5.87526 -6.98008C4.06743 -7.10979 0.651019 -7.06319 -2.46519 -4.85326L6.79037 8.19797ZM2.38287 -4.15248C2.42514 -4.19407 2.45844 -4.22581 2.47421 -4.24078C2.48232 -4.24848 2.48825 -4.25406 2.48947 -4.25521C2.4901 -4.2558 2.49042 -4.2561 2.48932 -4.25507C2.48866 -4.25445 2.48635 -4.25228 2.48396 -4.25002C2.47569 -4.24224 2.44652 -4.21478 2.41097 -4.1806C2.374 -4.14506 2.32112 -4.09361 2.25892 -4.03082L13.6272 7.2281C13.5733 7.28251 13.5288 7.32573 13.5003 7.35314C13.4858 7.36706 13.474 7.37827 13.4663 7.3856C13.4588 7.3927 13.4534 7.39779 13.4528 7.39835C13.4525 7.39859 13.4524 7.39876 13.4538 7.39737C13.4549 7.3964 13.4573 7.39409 13.4601 7.39149C13.4656 7.38632 13.4758 7.37672 13.4881 7.36498C13.5007 7.35305 13.5173 7.33724 13.5366 7.31867C13.5559 7.30002 13.579 7.27765 13.6048 7.25224L2.38287 -4.15248ZM2.25825 -4.03014C-0.252453 -1.49445 -1.16796 1.54835 -1.53969 3.33495C-1.93664 5.24278 -1.9277 6.78239 -1.9176 7.21831L14.0781 6.84741C14.0815 6.99228 14.0764 6.99509 14.082 6.91207C14.0879 6.82426 14.1015 6.70625 14.1248 6.59417C14.15 6.47333 14.1655 6.46044 14.1315 6.53545C14.0969 6.61185 13.959 6.89294 13.6278 7.22743L2.25825 -4.03014ZM-1.91973 7.01629C-1.92052 7.4009 -1.89239 7.81242 -1.89043 7.84547L14.0816 6.89961C14.0792 6.85981 14.0777 6.834 14.0765 6.81207C14.0752 6.7905 14.075 6.78449 14.0751 6.78736C14.0752 6.78967 14.0764 6.81364 14.0775 6.85149C14.0787 6.88805 14.0804 6.95778 14.0802 7.04944L-1.91973 7.01629ZM-1.89041 7.8459C-1.86036 8.35279 -1.85175 8.7009 -1.89682 9.02319L13.949 11.2387C14.2312 9.22082 14.1173 7.50249 14.0816 6.89918L-1.89041 7.8459ZM-1.89675 9.02269C-2.37581 12.4474 -1.32315 15.9852 1.1699 18.5863L12.7211 7.51525C13.7415 8.57986 14.1239 9.98909 13.949 11.2392L-1.89675 9.02269ZM1.17083 18.5873C1.44006 18.8681 1.71333 19.1238 1.98539 19.3563L12.3817 7.19418C12.4893 7.2862 12.6034 7.39249 12.7202 7.51427L1.17083 18.5873ZM1.33655 7.81514C0.950807 8.22821 0.125632 9.127 -0.766838 10.2007L11.5374 20.4284C12.1612 19.6779 12.7607 19.0243 13.0305 18.7354L1.33655 7.81514ZM13.2048 7.05135C14.3829 8.28039 14.8131 9.89891 14.6127 11.3316L-1.2331 9.1159C-1.68031 12.3142 -0.71106 15.6554 1.65395 18.1228L13.2048 7.05135ZM14.6128 11.3313C14.9035 9.25144 14.7881 7.49457 14.7506 6.85995L-1.22146 7.80577C-1.19054 8.32781 -1.1783 8.72394 -1.23314 9.11618L14.6128 11.3313ZM14.7506 6.8606C14.7479 6.81473 14.7464 6.78925 14.7451 6.76664C14.7445 6.75681 14.7443 6.75192 14.7442 6.7505C14.7441 6.74891 14.7444 6.7541 14.7449 6.76424L-1.23887 7.48589C-1.23318 7.61172 -1.22467 7.75149 -1.2215 7.80513L14.7506 6.8606ZM12.0599 13.1115C11.7044 13.4266 11.4144 13.6214 11.3136 13.688C11.1753 13.7794 11.0666 13.8424 10.9948 13.882C10.8562 13.9584 10.7225 14.021 10.5722 14.0774C10.4333 14.1295 10.1442 14.228 9.72193 14.2927C9.3302 14.3527 8.51141 14.4329 7.4641 14.1929L11.0378 -1.40288C8.25395 -2.04078 5.88054 -1.25165 4.94866 -0.901798C3.98607 -0.540414 2.59673 0.118645 1.44609 1.13868L12.0599 13.1115ZM7.46456 14.193C6.256 13.9162 4.89869 13.2473 3.79996 12.0195C2.76693 10.8651 2.37009 9.67235 2.21674 8.9634L17.8551 5.58093C17.595 4.37832 17.0164 2.79523 15.723 1.34984C14.3638 -0.168969 12.6674 -1.02957 11.0373 -1.40299L7.46456 14.193ZM2.21664 8.96292C2.28075 9.25941 2.28759 9.38739 2.28724 9.38135C2.28637 9.3659 2.28102 9.23328 2.31194 9.01676C2.32693 8.91183 2.34816 8.80323 2.3753 8.6944C2.40239 8.58576 2.43148 8.49246 2.45684 8.41957C2.48144 8.34882 2.49934 8.30659 2.49841 8.30881C2.49268 8.32241 2.48194 8.34715 2.42869 8.46545L17.0191 15.0321C17.2457 14.5285 17.8812 13.1694 18.1512 11.2789C18.4145 9.43515 18.2811 7.55118 17.8552 5.58141L2.21664 8.96292ZM2.42935 8.46398C2.36865 8.59878 2.18 9.01045 2.00635 9.4778L17.0045 15.0507C16.9896 15.0906 16.9774 15.1215 16.9693 15.1413C16.9614 15.1609 16.9569 15.1714 16.9576 15.1697C16.9579 15.169 16.9593 15.1659 16.9619 15.1597C16.9646 15.1536 16.9684 15.1451 16.9735 15.1336C16.9787 15.122 16.9848 15.1084 16.9924 15.0914C17.0001 15.0741 17.0083 15.056 17.0184 15.0335L2.42935 8.46398ZM2.0082 9.47281L1.95858 9.60609L16.953 15.1889L17.0026 15.0557L2.0082 9.47281ZM1.96009 9.60203C1.87663 9.82583 1.57396 10.6062 1.36786 11.4525L16.9135 15.2385C16.8913 15.3295 16.8719 15.3965 16.8607 15.4338C16.8494 15.4709 16.8433 15.4882 16.8466 15.4787C16.8499 15.4689 16.8587 15.4437 16.8772 15.3933C16.8862 15.3687 16.8966 15.3405 16.9091 15.3067C16.9219 15.2721 16.9353 15.2363 16.9515 15.193L1.96009 9.60203ZM9.16521 5.3455C10.8366 5.35063 12.2614 6.06687 13.2055 7.05203L1.6533 18.1221C3.53067 20.0813 6.18307 21.3364 9.11613 21.3454L9.16521 5.3455ZM9.46543 8.27216C9.86802 8.37275 10.218 8.50077 10.5177 8.63389C10.7991 8.75891 11.1692 8.94739 11.5865 9.23196L2.57174 22.4507C3.4826 23.0718 4.52425 23.5294 5.587 23.795L9.46543 8.27216ZM10.4871 23.0791C9.82494 23.3909 9.32069 23.5039 9.16925 23.5351L5.94157 7.86401C5.28895 7.99842 4.49567 8.21528 3.67113 8.60352L10.4871 23.0791ZM9.1688 23.5352C9.8358 23.3978 11.2586 23.101 12.6795 22.3029C14.4168 21.327 15.392 20.0309 15.6494 19.7041L3.07969 9.80446C2.92804 9.997 3.60513 9.0487 4.84336 8.35314C5.36028 8.06276 5.77696 7.92323 5.94302 7.87222C6.09384 7.82589 6.13191 7.82482 5.94202 7.86391L9.1688 23.5352ZM15.6476 19.7064C15.6601 19.6904 15.6688 19.6795 15.6772 19.6688C15.6852 19.6587 15.6909 19.6515 15.6955 19.6458C15.7043 19.6347 15.7067 19.6317 15.7055 19.6332C15.704 19.6351 15.6995 19.6405 15.693 19.6482C15.6863 19.6559 15.6792 19.6641 15.6719 19.6722L3.75175 8.99942C3.42257 9.36708 3.18189 9.67479 3.08148 9.80218L15.6476 19.7064ZM16.8673 17.9135C16.8979 17.8522 17.0349 17.58 17.1749 17.2174C17.2161 17.1105 17.2741 16.9538 17.3353 16.7614C17.3909 16.5867 17.4853 16.2706 17.5641 15.8661C17.6046 15.6583 17.6533 15.3654 17.6832 15.012C17.7118 14.6756 17.7358 14.1467 17.6684 13.5033C17.6047 12.8943 17.4266 11.8528 16.8367 10.6975C16.1979 9.44664 15.0619 8.05897 13.2653 7.16829C11.5197 6.3029 9.84939 6.25314 8.69759 6.40035C7.5938 6.54143 6.75645 6.88295 6.27904 7.10975C5.77186 7.35069 5.38373 7.60086 5.13489 7.77445C4.87489 7.95582 4.66733 8.12366 4.51904 8.25019C4.23031 8.49657 4.01638 8.71499 3.89373 8.84495C3.76041 8.98622 3.65412 9.1092 3.57943 9.19836C3.31847 9.50986 3.13766 9.77482 3.05429 9.89994C2.9527 10.0524 2.83428 10.2415 2.71127 10.4639C2.64961 10.5754 2.55854 10.7461 2.45903 10.9599C2.38274 11.1238 2.18624 11.5554 2.02006 12.1366C1.93878 12.4209 1.79453 12.9793 1.73707 13.7009C1.70731 14.0746 1.69107 14.6072 1.76314 15.2405C1.83414 15.8643 2.00981 16.7553 2.4706 17.7365C2.9516 18.7607 3.73866 19.8645 4.9413 20.7578C6.14716 21.6536 7.444 22.0949 8.59309 22.2572C9.69143 22.4124 10.6162 22.3107 11.2489 22.1868C11.89 22.0613 12.4043 21.8789 12.7579 21.7332C13.4402 21.4523 13.9353 21.1366 14.1811 20.9711C14.4594 20.7836 14.6745 20.613 14.8113 20.4999C15.0798 20.2778 15.2769 20.0846 15.3735 19.9879L4.05022 8.68376C4.14675 8.58706 4.34388 8.39392 4.61239 8.17179C4.74914 8.05865 4.96431 7.88809 5.24261 7.70064C5.48834 7.53512 5.98343 7.21942 6.66572 6.93847C7.0194 6.79283 7.53368 6.6104 8.17481 6.48489C8.80744 6.36103 9.73224 6.25934 10.8306 6.41445C11.9797 6.57674 13.2765 7.01809 14.4824 7.91385C15.685 8.80722 16.4721 9.91095 16.9531 10.9352C17.4139 11.9164 17.5895 12.8074 17.6605 13.4312C17.7326 14.0645 17.7164 14.5971 17.6866 14.9708C17.6291 15.6924 17.4849 16.2508 17.4036 16.5351C17.2374 17.1163 17.0409 17.5479 16.9646 17.7118C16.8651 17.9255 16.7741 18.0963 16.7124 18.2078C16.5894 18.4302 16.471 18.6192 16.3694 18.7717C16.286 18.8968 16.1052 19.1618 15.8443 19.4732C15.7696 19.5624 15.6633 19.6854 15.53 19.8266C15.4073 19.9566 15.1934 20.175 14.9047 20.4214C14.7564 20.5479 14.5488 20.7158 14.2888 20.8971C14.04 21.0707 13.6519 21.3209 13.1447 21.5618C12.6673 21.7886 11.8299 22.1302 10.7261 22.2712C9.57434 22.4185 7.90398 22.3687 6.15843 21.5033C4.36188 20.6126 3.22583 19.225 2.58708 17.9741C1.99712 16.8188 1.81902 15.7773 1.7553 15.1683C1.68798 14.5249 1.71196 13.996 1.74049 13.6596C1.77048 13.3062 1.81909 13.0133 1.8596 12.8055C1.93842 12.401 2.03286 12.0849 2.08844 11.9102C2.14965 11.7178 2.2076 11.5611 2.24885 11.4542C2.38886 11.0916 2.52577 10.8194 2.55643 10.7581L16.8673 17.9135ZM15.6779 19.6656C15.4602 19.9093 13.931 21.6616 11.1242 22.0684C9.73846 22.2693 8.61118 22.053 7.95162 21.8701C7.42401 21.7238 6.98491 21.5289 7.14879 21.5969L13.2781 6.81747C13.2769 6.81696 13.1498 6.76366 13.0065 6.70883C12.8534 6.65027 12.5772 6.54898 12.2268 6.4518C11.4904 6.24761 10.2902 6.02214 8.82918 6.23389C5.87182 6.66252 4.1828 8.51691 3.74579 9.0061L15.6779 19.6656ZM7.15377 21.5989C5.5629 20.9404 4.59961 19.9239 4.10558 19.2885C3.55738 18.5833 3.1315 17.7656 2.87176 16.8586L18.2535 12.4539C17.9356 11.3436 17.4088 10.3319 16.7374 9.46824C16.1202 8.67432 15.0114 7.53494 13.2731 6.81541L7.15377 21.5989ZM2.87241 16.8609C2.75415 16.4483 2.57177 15.6817 2.59109 14.6928C2.61086 13.6814 2.85684 12.0414 4.00937 10.4274L17.0304 19.7253C19.4219 16.3762 18.3851 12.9127 18.2529 12.4517L2.87241 16.8609ZM4.00986 10.4267C4.77958 9.34902 5.99075 8.56948 7.30272 8.27796C8.3971 8.0348 9.19901 8.20549 9.46826 8.27287L5.58417 23.7943C7.82923 24.3561 13.3613 24.8626 17.03 19.726L4.00986 10.4267ZM12.1973 14.1176C12.9906 13.9476 14.9645 13.8227 16.9252 15.226C17.7535 15.8188 18.263 16.4736 18.5457 16.9118C18.8136 17.327 18.9362 17.64 18.946 17.6643L4.0904 23.6067C4.39181 24.3602 5.31077 26.5892 7.6132 28.237C10.294 30.1557 13.2725 30.2504 15.5494 29.7625L12.1973 14.1176ZM18.9463 17.6651C19.0927 18.0312 19.1756 18.3249 19.2163 18.4799C19.2607 18.6497 19.2868 18.7783 19.2998 18.847C19.3247 18.9782 19.3289 19.0335 19.3224 18.9767C19.31 18.8664 19.2882 18.6104 19.2699 18.1908C19.2341 17.3677 19.2251 16.2364 19.2597 14.9988L3.266 14.551C3.22275 16.0957 3.22968 17.6153 3.2851 18.8872C3.31246 19.5152 3.35517 20.1677 3.4237 20.7739C3.45749 21.0728 3.58438 22.3413 4.09007 23.6059L18.9463 17.6651ZM19.2598 14.9954C19.2858 14.0521 19.1504 13.1569 18.9025 12.3417L3.59426 16.9954C3.36686 16.2473 3.24193 15.4237 3.2659 14.5544L19.2598 14.9954ZM19.1747 13.585C19.1145 13.1449 19.0226 12.7052 18.8977 12.2692L3.51618 16.6746C3.42915 16.3708 3.36453 16.0623 3.32212 15.7521L19.1747 13.585ZM18.8979 12.2698C18.2234 9.91408 16.4773 7.41789 13.5329 6.19761L7.40709 20.9785C5.14013 20.0389 3.95866 18.2201 3.51599 16.674L18.8979 12.2698ZM13.532 6.19724C13.3451 6.1198 10.8888 4.96778 7.80937 5.75535L11.7738 21.2564C9.28799 21.8922 7.32577 20.9448 7.40799 20.9788L13.532 6.19724ZM17.5656 15.3937C17.5519 15.4505 17.5391 15.4988 17.5284 15.5376C17.5176 15.5764 17.5084 15.6079 17.5013 15.6311C17.4942 15.6543 17.4888 15.6712 17.4857 15.6808C17.4825 15.6904 17.4811 15.6945 17.4819 15.6921C17.4828 15.6897 17.4853 15.6825 17.49 15.6694C17.4946 15.6563 17.5009 15.6389 17.5093 15.6161C17.5177 15.5931 17.5274 15.5667 17.5392 15.5349C17.5513 15.5025 17.5639 15.4687 17.5791 15.4279L2.58827 9.83546C2.51921 10.0206 2.2164 10.799 2.01751 11.6181L17.5656 15.3937ZM17.5812 15.4223L17.6311 15.2881L2.63612 9.70692L2.58617 9.84111L17.5812 15.4223ZM17.632 15.2857C17.6133 15.336 17.5981 15.3743 17.5885 15.3978C17.5836 15.4098 17.5798 15.419 17.5774 15.4248C17.5749 15.4307 17.5735 15.4339 17.5735 15.4339C17.5735 15.4339 17.5746 15.4314 17.577 15.4259C17.5795 15.4203 17.5829 15.4124 17.5878 15.4016C17.5926 15.3907 17.5984 15.3778 17.6056 15.3618C17.6129 15.3454 17.6206 15.3283 17.6302 15.3071L3.03977 8.7405C2.98972 8.85169 2.80203 9.26072 2.63524 9.70928L17.632 15.2857ZM17.63 15.3074C17.8712 14.7715 18.5156 13.3864 18.8022 11.4547C19.0838 9.55666 18.971 7.57065 18.5103 5.43975L2.87169 8.82124C2.94248 9.14864 2.9535 9.31188 2.95502 9.34185C2.95574 9.3561 2.95427 9.33935 2.95627 9.29553C2.9583 9.25105 2.96354 9.18676 2.97549 9.10624C2.98751 9.02521 3.00452 8.93992 3.02632 8.8536C3.04809 8.76743 3.07118 8.69387 3.09076 8.6377C3.10975 8.58323 3.12235 8.55409 3.11783 8.56482C3.11522 8.57101 3.10893 8.58573 3.09609 8.61477C3.08202 8.64656 3.06659 8.68091 3.0399 8.7402L17.63 15.3074ZM18.5102 5.43947C18.0557 3.33776 16.8567 0.978021 14.4594 -0.643219C12.1367 -2.21406 9.63814 -2.44885 7.75664 -2.25396L9.40513 13.6609C8.65981 13.7381 7.1041 13.6979 5.49622 12.6105C3.81382 11.4727 3.10182 9.88534 2.87175 8.82152L18.5102 5.43947ZM7.7575 -2.25405C5.64977 -2.03596 4.00462 -1.26179 3.34814 -0.928948L10.5834 13.3417C10.5018 13.383 10.3987 13.4309 10.2603 13.479C10.1367 13.522 9.84229 13.6157 9.40427 13.661L7.7575 -2.25405ZM3.34909 -0.92943C3.18445 -0.845982 3.02882 -0.762868 2.88052 -0.680063L10.6809 13.2897C10.6468 13.3087 10.6135 13.3264 10.5825 13.3422L3.34909 -0.92943ZM14.7534 6.96591C14.7581 6.90907 14.7662 6.84084 14.778 6.77425C14.7903 6.70493 14.8002 6.67421 14.7977 6.6819C14.7963 6.68636 14.7656 6.78489 14.6768 6.94708C14.587 7.11102 14.4102 7.39024 14.1022 7.70088L2.74038 -3.56456C-0.631027 -0.164327 -1.08563 4.36216 -1.1919 5.64369L14.7534 6.96591ZM14.1022 7.70083C13.6765 8.13021 13.1454 8.47504 12.5706 8.69008C12.0157 8.89768 11.572 8.92862 11.3416 8.92481L11.606 -7.073C8.51634 -7.12406 5.27199 -6.11786 2.74033 -3.56452L14.1022 7.70083ZM11.3427 8.92483C11.2816 8.92383 11.1706 8.9133 11.0288 8.87408C10.8894 8.8355 10.7599 8.78024 10.6485 8.7183C10.4375 8.60099 10.3364 8.48643 10.3108 8.45624L22.5243 -1.87962C20.6678 -4.07344 17.0864 -6.98322 11.6048 -7.07302L11.3427 8.92483ZM10.3106 8.45598C10.3044 8.44864 10.3044 8.44826 10.3011 8.4423C10.2981 8.43677 10.2884 8.41855 10.2725 8.38243C10.2581 8.34967 10.2279 8.27774 10.1885 8.16061L25.3521 3.05545C24.9106 1.74381 24.0351 -0.0941959 22.5245 -1.87936L10.3106 8.45598ZM18.5794 -2.35095C16.4681 -2.56557 11.6825 -2.53003 8.68235 1.7585L21.7927 10.9301C20.7866 12.3682 19.4384 13.0862 18.429 13.3795C17.9625 13.5151 17.5896 13.5569 17.3612 13.5699C17.1311 13.5829 16.9903 13.57 16.9612 13.567L18.5794 -2.35095ZM8.68233 1.75852C7.14742 3.95261 6.8855 6.25638 6.93725 7.81189C6.98831 9.34662 7.35304 10.6654 7.65861 11.5604C8.25974 13.3211 9.15747 14.8908 9.46128 15.4356L23.4355 7.64312C23.2565 7.32226 23.1203 7.07563 22.9945 6.82297C22.8658 6.56448 22.8121 6.425 22.8005 6.39086C22.7733 6.31113 22.9074 6.64948 22.9284 7.27989C22.9501 7.93106 22.8585 9.40656 21.7927 10.9301L8.68233 1.75852ZM9.46177 15.4364C9.49473 15.4955 9.51991 15.5407 9.5422 15.5809C9.56466 15.6215 9.57648 15.6431 9.5816 15.6526C9.58908 15.6665 9.57372 15.6385 9.54673 15.5853C9.53251 15.5572 9.50685 15.506 9.47473 15.4382C9.44563 15.3767 9.39032 15.2577 9.32597 15.1017L24.1169 9.00021C23.9143 8.50917 23.6739 8.07587 23.6581 8.04652C23.5793 7.90079 23.491 7.74274 23.435 7.64224L9.46177 15.4364ZM9.32618 15.1022C10.0176 16.778 10.9393 17.8961 11.2112 18.2358L23.7036 8.23887C23.5911 8.09832 23.6704 8.19158 23.7621 8.32991C23.8697 8.49225 24.0011 8.7196 24.1167 8.99969L9.32618 15.1022ZM11.212 18.2369C11.2304 18.2598 11.2381 18.2695 11.2444 18.2774C11.2499 18.2843 11.2465 18.28 11.238 18.2691C11.2295 18.2583 11.2107 18.2339 11.1851 18.1995C11.1598 18.1657 11.1209 18.1127 11.0735 18.0447L24.1978 8.89311C23.9656 8.56015 23.7155 8.25374 23.7028 8.2378L11.212 18.2369ZM15.4188 5.78217C14.9289 5.92347 12.7957 6.5178 11.0097 8.51401C9.04878 10.7057 8.54253 13.3391 8.64796 15.4845L24.6287 14.6991C24.6721 15.5832 24.4751 17.4598 22.9336 19.1826C21.567 20.71 19.9635 21.1236 19.8524 21.1556L15.4188 5.78217ZM8.66316 14.4618C8.66474 14.4418 8.66178 14.4799 8.64867 14.6067C8.63704 14.7191 8.62116 14.8654 8.60138 15.0408C8.56189 15.391 8.51061 15.8242 8.4548 16.2748C8.33489 17.243 8.22183 18.0654 8.16847 18.3746L23.9355 21.0952C24.1608 19.7895 24.5455 16.5818 24.6135 15.7218L8.66316 14.4618ZM8.16832 18.3755C8.16939 18.3693 8.22489 18.0272 8.43238 17.5314C8.66249 16.9816 9.06237 16.2831 9.71886 15.6186C11.0231 14.2985 12.3833 14.0777 12.1963 14.1178L15.5504 29.7623C16.7946 29.4955 19.1249 28.8638 21.101 26.8635C23.1267 24.8131 23.7066 22.4228 23.9356 21.0943L8.16832 18.3755ZM16.6977 7.59668C17.0072 7.45303 17.2487 7.37212 17.3808 7.3315C17.5237 7.28757 17.6306 7.26275 17.6966 7.24901C17.817 7.22397 17.9204 7.21089 18.0397 7.20529L18.7903 23.1877C20.0202 23.1299 21.7877 22.8738 23.4352 22.109L16.6977 7.59668ZM18.0404 7.20525C18.1646 7.19943 18.5012 7.19309 18.9957 7.27834C19.2383 7.32017 19.6044 7.39866 20.0479 7.55295C20.2708 7.63054 20.5705 7.74707 20.9145 7.91828C21.223 8.07178 21.7655 8.36655 22.3643 8.85508L12.2499 21.2526C13.3409 22.1427 14.408 22.5314 14.7899 22.6643C15.3424 22.8566 15.8529 22.9726 16.2773 23.0457C17.1353 23.1936 17.9851 23.2254 18.7895 23.1877L18.0404 7.20525ZM25.2976 14.6647C25.3129 14.9795 25.4206 17.2365 23.627 19.4083C21.8952 21.5054 19.4875 21.9542 20.0336 21.8009L15.7085 6.39659C15.6957 6.40016 15.5097 6.45137 15.303 6.51799C15.0805 6.58966 14.7289 6.71155 14.3178 6.89973C13.4456 7.29887 12.2974 8.00037 11.2902 9.21997C9.28245 11.6511 9.26293 14.3422 9.31655 15.443L25.2976 14.6647ZM20.0407 21.7989C20.0479 21.7969 20.1324 21.7733 20.2221 21.7466C20.32 21.7175 20.4725 21.6707 20.6542 21.6071L15.3718 6.50431C15.5077 6.45676 15.6136 6.4246 15.6641 6.40959C15.7065 6.39699 15.7428 6.3869 15.7014 6.39857L20.0407 21.7989ZM12.9656 20.2625C13.1997 20.4529 13.445 20.633 13.7008 20.8018L22.5128 7.44708C22.7004 7.57084 22.8832 7.70491 23.0604 7.84897L12.9656 20.2625ZM13.6999 20.8012C15.643 22.0838 17.6434 22.3666 18.9259 22.4178C20.2768 22.4717 21.5533 22.2956 22.6224 22.0749L19.3881 6.40524C19.0807 6.46869 19.1813 6.41523 19.5638 6.4305C19.8778 6.44303 21.1173 6.52598 22.5138 7.4477L13.6999 20.8012ZM22.6701 22.0649C22.6451 22.0703 22.6244 22.0745 22.61 22.0775C22.5959 22.0803 22.5852 22.0825 22.5817 22.0832C22.58 22.0835 22.5786 22.0838 22.5796 22.0836C22.5799 22.0836 22.5825 22.083 22.5855 22.0824C22.5915 22.0812 22.6049 22.0786 22.6217 22.0751L19.4191 6.39892C19.4334 6.396 19.4443 6.39381 19.4477 6.39312C19.4495 6.39278 19.4509 6.3925 19.4499 6.3927C19.4496 6.39276 19.447 6.39328 19.444 6.39388C19.438 6.39507 19.4247 6.39773 19.4081 6.40112C19.3912 6.40458 19.368 6.40938 19.3405 6.41522L22.6701 22.0649ZM15.5562 8.39381C15.8084 8.15798 16.0297 7.9923 16.2014 7.87769C16.3807 7.75799 16.5469 7.66673 16.6974 7.59685L23.4356 22.1088C24.6079 21.5645 25.6431 20.8671 26.4845 20.0802L15.5562 8.39381Z" fill="white" mask="url(#path-1-inside-1_7_87)"/>
</svg>
